<?xml version="1.0" encoding="UTF-8" standalone="no"?>
<!DOCTYPE svg PUBLIC "-//W3C//DTD SVG 1.1//EN"
 "http://www.w3.org/Graphics/SVG/1.1/DTD/svg11.dtd">
<!-- Generated by graphviz version 2.43.0 (0)
 -->
<!-- Title: AdaptiveParameters Pages: 1 -->
<svg width="547pt" height="281pt"
 viewBox="0.00 0.00 547.00 281.00" xmlns="http://www.w3.org/2000/svg" xmlns:xlink="http://www.w3.org/1999/xlink">
<g id="graph0" class="graph" transform="scale(1 1) rotate(0) translate(4 277)">
<title>AdaptiveParameters</title>
<polygon fill="white" stroke="transparent" points="-4,4 -4,-277 543,-277 543,4 -4,4"/>
<!-- Node1 -->
<g id="node1" class="node">
<title>Node1</title>
<g id="a_node1"><a xlink:title=" ">
<polygon fill="#bfbfbf" stroke="black" points="200,-204.5 200,-272.5 343,-272.5 343,-204.5 200,-204.5"/>
<text text-anchor="middle" x="271.5" y="-260.5" font-family="Helvetica,sans-Serif" font-size="10.00">AdaptiveParameters</text>
<polyline fill="none" stroke="black" points="200,-253.5 343,-253.5 "/>
<text text-anchor="start" x="208" y="-241.5" font-family="Helvetica,sans-Serif" font-size="10.00">+ dynamic</text>
<polyline fill="none" stroke="black" points="200,-234.5 343,-234.5 "/>
<text text-anchor="start" x="208" y="-222.5" font-family="Helvetica,sans-Serif" font-size="10.00">+ ~AdaptiveParameters()</text>
<text text-anchor="start" x="208" y="-211.5" font-family="Helvetica,sans-Serif" font-size="10.00">+ updateParameters()</text>
</a>
</g>
</g>
<!-- Node2 -->
<g id="node2" class="node">
<title>Node2</title>
<g id="a_node2"><a xlink:href="classBayesianAdaptiveParameters.html" target="_top" xlink:title=" ">
<polygon fill="white" stroke="black" points="0,-11.5 0,-156.5 161,-156.5 161,-11.5 0,-11.5"/>
<text text-anchor="middle" x="80.5" y="-144.5" font-family="Helvetica,sans-Serif" font-size="10.00">BayesianAdaptiveParameters</text>
<polyline fill="none" stroke="black" points="0,-137.5 161,-137.5 "/>
<text text-anchor="start" x="8" y="-125.5" font-family="Helvetica,sans-Serif" font-size="10.00">+ base_buyThreshold</text>
<text text-anchor="start" x="8" y="-114.5" font-family="Helvetica,sans-Serif" font-size="10.00">+ base_sellThreshold</text>
<text text-anchor="start" x="8" y="-103.5" font-family="Helvetica,sans-Serif" font-size="10.00">+ base_rsiThreshold</text>
<text text-anchor="start" x="8" y="-92.5" font-family="Helvetica,sans-Serif" font-size="10.00">+ delta</text>
<text text-anchor="start" x="8" y="-81.5" font-family="Helvetica,sans-Serif" font-size="10.00">+ delta_rsi</text>
<text text-anchor="start" x="8" y="-70.5" font-family="Helvetica,sans-Serif" font-size="10.00">+ buyThreshold</text>
<text text-anchor="start" x="8" y="-59.5" font-family="Helvetica,sans-Serif" font-size="10.00">+ sellThreshold</text>
<text text-anchor="start" x="8" y="-48.5" font-family="Helvetica,sans-Serif" font-size="10.00">+ rsiThreshold</text>
<polyline fill="none" stroke="black" points="0,-41.5 161,-41.5 "/>
<text text-anchor="start" x="8" y="-29.5" font-family="Helvetica,sans-Serif" font-size="10.00">+ updateParameters()</text>
<text text-anchor="start" x="8" y="-18.5" font-family="Helvetica,sans-Serif" font-size="10.00">+ getParameters()</text>
</a>
</g>
</g>
<!-- Node1&#45;&gt;Node2 -->
<g id="edge1" class="edge">
<title>Node1&#45;&gt;Node2</title>
<path fill="none" stroke="midnightblue" d="M211.87,-198.54C198.01,-188.93 183.52,-178.39 170.5,-168 165.93,-164.35 161.31,-160.53 156.69,-156.62"/>
<polygon fill="none" stroke="midnightblue" points="210.17,-201.62 220.39,-204.4 214.14,-195.86 210.17,-201.62"/>
</g>
<!-- Node3 -->
<g id="node3" class="node">
<title>Node3</title>
<g id="a_node3"><a xlink:href="classMeanReversalAdaptiveParameters.html" target="_top" xlink:title=" ">
<polygon fill="white" stroke="black" points="179,-0.5 179,-167.5 364,-167.5 364,-0.5 179,-0.5"/>
<text text-anchor="middle" x="271.5" y="-155.5" font-family="Helvetica,sans-Serif" font-size="10.00">MeanReversalAdaptiveParameters</text>
<polyline fill="none" stroke="black" points="179,-148.5 364,-148.5 "/>
<text text-anchor="start" x="187" y="-136.5" font-family="Helvetica,sans-Serif" font-size="10.00">+ base_window_size</text>
<text text-anchor="start" x="187" y="-125.5" font-family="Helvetica,sans-Serif" font-size="10.00">+ base_sma_short</text>
<text text-anchor="start" x="187" y="-114.5" font-family="Helvetica,sans-Serif" font-size="10.00">+ base_sma_long</text>
<text text-anchor="start" x="187" y="-103.5" font-family="Helvetica,sans-Serif" font-size="10.00">+ base_rsi_oversold</text>
<text text-anchor="start" x="187" y="-92.5" font-family="Helvetica,sans-Serif" font-size="10.00">+ base_rsi_overbought</text>
<text text-anchor="start" x="187" y="-81.5" font-family="Helvetica,sans-Serif" font-size="10.00">+ window_size</text>
<text text-anchor="start" x="187" y="-70.5" font-family="Helvetica,sans-Serif" font-size="10.00">+ sma_short</text>
<text text-anchor="start" x="187" y="-59.5" font-family="Helvetica,sans-Serif" font-size="10.00">+ sma_long</text>
<text text-anchor="start" x="187" y="-48.5" font-family="Helvetica,sans-Serif" font-size="10.00">+ rsi_oversold</text>
<text text-anchor="start" x="187" y="-37.5" font-family="Helvetica,sans-Serif" font-size="10.00">+ rsi_overbought</text>
<polyline fill="none" stroke="black" points="179,-30.5 364,-30.5 "/>
<text text-anchor="start" x="187" y="-18.5" font-family="Helvetica,sans-Serif" font-size="10.00">+ updateParameters()</text>
<text text-anchor="start" x="187" y="-7.5" font-family="Helvetica,sans-Serif" font-size="10.00">+ getParameters()</text>
</a>
</g>
</g>
<!-- Node1&#45;&gt;Node3 -->
<g id="edge2" class="edge">
<title>Node1&#45;&gt;Node3</title>
<path fill="none" stroke="midnightblue" d="M271.5,-194.23C271.5,-185.88 271.5,-176.89 271.5,-167.76"/>
<polygon fill="none" stroke="midnightblue" points="268,-194.41 271.5,-204.41 275,-194.41 268,-194.41"/>
</g>
<!-- Node4 -->
<g id="node4" class="node">
<title>Node4</title>
<g id="a_node4"><a xlink:href="classScalpingAdaptiveParameters.html" target="_top" xlink:title=" ">
<polygon fill="white" stroke="black" points="382,-0.5 382,-167.5 539,-167.5 539,-0.5 382,-0.5"/>
<text text-anchor="middle" x="460.5" y="-155.5" font-family="Helvetica,sans-Serif" font-size="10.00">ScalpingAdaptiveParameters</text>
<polyline fill="none" stroke="black" points="382,-148.5 539,-148.5 "/>
<text text-anchor="start" x="390" y="-136.5" font-family="Helvetica,sans-Serif" font-size="10.00">+ base_window_size</text>
<text text-anchor="start" x="390" y="-125.5" font-family="Helvetica,sans-Serif" font-size="10.00">+ base_sma_short</text>
<text text-anchor="start" x="390" y="-114.5" font-family="Helvetica,sans-Serif" font-size="10.00">+ base_sma_long</text>
<text text-anchor="start" x="390" y="-103.5" font-family="Helvetica,sans-Serif" font-size="10.00">+ base_rsi_oversold</text>
<text text-anchor="start" x="390" y="-92.5" font-family="Helvetica,sans-Serif" font-size="10.00">+ base_rsi_overbought</text>
<text text-anchor="start" x="390" y="-81.5" font-family="Helvetica,sans-Serif" font-size="10.00">+ window_size</text>
<text text-anchor="start" x="390" y="-70.5" font-family="Helvetica,sans-Serif" font-size="10.00">+ sma_short</text>
<text text-anchor="start" x="390" y="-59.5" font-family="Helvetica,sans-Serif" font-size="10.00">+ sma_long</text>
<text text-anchor="start" x="390" y="-48.5" font-family="Helvetica,sans-Serif" font-size="10.00">+ rsi_oversold</text>
<text text-anchor="start" x="390" y="-37.5" font-family="Helvetica,sans-Serif" font-size="10.00">+ rsi_overbought</text>
<polyline fill="none" stroke="black" points="382,-30.5 539,-30.5 "/>
<text text-anchor="start" x="390" y="-18.5" font-family="Helvetica,sans-Serif" font-size="10.00">+ updateParameters()</text>
<text text-anchor="start" x="390" y="-7.5" font-family="Helvetica,sans-Serif" font-size="10.00">+ getParameters()</text>
</a>
</g>
</g>
<!-- Node1&#45;&gt;Node4 -->
<g id="edge3" class="edge">
<title>Node1&#45;&gt;Node4</title>
<path fill="none" stroke="midnightblue" d="M331.44,-198.5C345.22,-188.92 359.61,-178.41 372.5,-168 375.6,-165.49 378.73,-162.9 381.86,-160.25"/>
<polygon fill="none" stroke="midnightblue" points="329.21,-195.78 322.95,-204.33 333.17,-201.55 329.21,-195.78"/>
</g>
</g>
</svg>
