<?xml version="1.0" encoding="UTF-8" standalone="no"?>
<!DOCTYPE svg PUBLIC "-//W3C//DTD SVG 1.1//EN"
 "http://www.w3.org/Graphics/SVG/1.1/DTD/svg11.dtd">
<!-- Generated by graphviz version 2.43.0 (0)
 -->
<!-- Title: AbstractOrderManager Pages: 1 -->
<svg width="629pt" height="248pt"
 viewBox="0.00 0.00 629.00 248.00" xmlns="http://www.w3.org/2000/svg" xmlns:xlink="http://www.w3.org/1999/xlink">
<g id="graph0" class="graph" transform="scale(1 1) rotate(0) translate(4 244)">
<title>AbstractOrderManager</title>
<polygon fill="white" stroke="transparent" points="-4,4 -4,-244 625,-244 625,4 -4,4"/>
<!-- Node1 -->
<g id="node1" class="node">
<title>Node1</title>
<g id="a_node1"><a xlink:title=" ">
<polygon fill="#bfbfbf" stroke="black" points="234,-127.5 234,-239.5 380,-239.5 380,-127.5 234,-127.5"/>
<text text-anchor="middle" x="307" y="-227.5" font-family="Helvetica,sans-Serif" font-size="10.00">AbstractOrderManager</text>
<polyline fill="none" stroke="black" points="234,-220.5 380,-220.5 "/>
<text text-anchor="start" x="242" y="-208.5" font-family="Helvetica,sans-Serif" font-size="10.00"># api_key</text>
<text text-anchor="start" x="242" y="-197.5" font-family="Helvetica,sans-Serif" font-size="10.00"># api_secret</text>
<polyline fill="none" stroke="black" points="234,-190.5 380,-190.5 "/>
<text text-anchor="start" x="242" y="-178.5" font-family="Helvetica,sans-Serif" font-size="10.00"># AbstractOrderManager()</text>
<text text-anchor="start" x="242" y="-167.5" font-family="Helvetica,sans-Serif" font-size="10.00"># hmac()</text>
<text text-anchor="start" x="242" y="-156.5" font-family="Helvetica,sans-Serif" font-size="10.00"># base64_encode()</text>
<text text-anchor="start" x="242" y="-145.5" font-family="Helvetica,sans-Serif" font-size="10.00"># send_post_request()</text>
<text text-anchor="start" x="242" y="-134.5" font-family="Helvetica,sans-Serif" font-size="10.00"># write_callback()</text>
</a>
</g>
</g>
<!-- Node2 -->
<g id="node2" class="node">
<title>Node2</title>
<g id="a_node2"><a xlink:href="classBinanceOrderManager.html" target="_top" xlink:title=" ">
<polygon fill="white" stroke="black" points="0,-11.5 0,-79.5 144,-79.5 144,-11.5 0,-11.5"/>
<text text-anchor="middle" x="72" y="-67.5" font-family="Helvetica,sans-Serif" font-size="10.00">BinanceOrderManager</text>
<polyline fill="none" stroke="black" points="0,-60.5 144,-60.5 "/>
<text text-anchor="middle" x="72" y="-48.5" font-family="Helvetica,sans-Serif" font-size="10.00"> </text>
<polyline fill="none" stroke="black" points="0,-41.5 144,-41.5 "/>
<text text-anchor="start" x="8" y="-29.5" font-family="Helvetica,sans-Serif" font-size="10.00">+ BinanceOrderManager()</text>
<text text-anchor="start" x="8" y="-18.5" font-family="Helvetica,sans-Serif" font-size="10.00">+ place_order()</text>
</a>
</g>
</g>
<!-- Node1&#45;&gt;Node2 -->
<g id="edge1" class="edge">
<title>Node1&#45;&gt;Node2</title>
<path fill="none" stroke="midnightblue" d="M225.13,-135.12C193.54,-116.84 158.14,-96.35 129.35,-79.69"/>
<polygon fill="none" stroke="midnightblue" points="223.52,-138.23 233.93,-140.21 227.03,-132.18 223.52,-138.23"/>
</g>
<!-- Node3 -->
<g id="node3" class="node">
<title>Node3</title>
<g id="a_node3"><a xlink:href="classKrakenOrderManager.html" target="_top" xlink:title=" ">
<polygon fill="white" stroke="black" points="162.5,-11.5 162.5,-79.5 301.5,-79.5 301.5,-11.5 162.5,-11.5"/>
<text text-anchor="middle" x="232" y="-67.5" font-family="Helvetica,sans-Serif" font-size="10.00">KrakenOrderManager</text>
<polyline fill="none" stroke="black" points="162.5,-60.5 301.5,-60.5 "/>
<text text-anchor="middle" x="232" y="-48.5" font-family="Helvetica,sans-Serif" font-size="10.00"> </text>
<polyline fill="none" stroke="black" points="162.5,-41.5 301.5,-41.5 "/>
<text text-anchor="start" x="170.5" y="-29.5" font-family="Helvetica,sans-Serif" font-size="10.00">+ KrakenOrderManager()</text>
<text text-anchor="start" x="170.5" y="-18.5" font-family="Helvetica,sans-Serif" font-size="10.00">+ place_order()</text>
</a>
</g>
</g>
<!-- Node1&#45;&gt;Node3 -->
<g id="edge2" class="edge">
<title>Node1&#45;&gt;Node3</title>
<path fill="none" stroke="midnightblue" d="M271.64,-118.39C264.22,-104.93 256.68,-91.26 250.2,-79.51"/>
<polygon fill="none" stroke="midnightblue" points="268.6,-120.12 276.49,-127.18 274.73,-116.74 268.6,-120.12"/>
</g>
<!-- Node4 -->
<g id="node4" class="node">
<title>Node4</title>
<g id="a_node4"><a xlink:href="classOKXOrderManager.html" target="_top" xlink:title=" ">
<polygon fill="white" stroke="black" points="319.5,-11.5 319.5,-79.5 444.5,-79.5 444.5,-11.5 319.5,-11.5"/>
<text text-anchor="middle" x="382" y="-67.5" font-family="Helvetica,sans-Serif" font-size="10.00">OKXOrderManager</text>
<polyline fill="none" stroke="black" points="319.5,-60.5 444.5,-60.5 "/>
<text text-anchor="middle" x="382" y="-48.5" font-family="Helvetica,sans-Serif" font-size="10.00"> </text>
<polyline fill="none" stroke="black" points="319.5,-41.5 444.5,-41.5 "/>
<text text-anchor="start" x="327.5" y="-29.5" font-family="Helvetica,sans-Serif" font-size="10.00">+ OKXOrderManager()</text>
<text text-anchor="start" x="327.5" y="-18.5" font-family="Helvetica,sans-Serif" font-size="10.00">+ place_order()</text>
</a>
</g>
</g>
<!-- Node1&#45;&gt;Node4 -->
<g id="edge3" class="edge">
<title>Node1&#45;&gt;Node4</title>
<path fill="none" stroke="midnightblue" d="M342.36,-118.39C349.78,-104.93 357.32,-91.26 363.8,-79.51"/>
<polygon fill="none" stroke="midnightblue" points="339.27,-116.74 337.51,-127.18 345.4,-120.12 339.27,-116.74"/>
</g>
<!-- Node5 -->
<g id="node5" class="node">
<title>Node5</title>
<g id="a_node5"><a xlink:href="classOrderManagerTest_1_1TestOrderManager.html" target="_top" xlink:title=" ">
<polygon fill="white" stroke="black" points="463,-0.5 463,-90.5 621,-90.5 621,-0.5 463,-0.5"/>
<text text-anchor="start" x="471" y="-78.5" font-family="Helvetica,sans-Serif" font-size="10.00">OrderManagerTest::TestOrder</text>
<text text-anchor="middle" x="542" y="-67.5" font-family="Helvetica,sans-Serif" font-size="10.00">Manager</text>
<polyline fill="none" stroke="black" points="463,-60.5 621,-60.5 "/>
<text text-anchor="middle" x="542" y="-48.5" font-family="Helvetica,sans-Serif" font-size="10.00"> </text>
<polyline fill="none" stroke="black" points="463,-41.5 621,-41.5 "/>
<text text-anchor="start" x="471" y="-29.5" font-family="Helvetica,sans-Serif" font-size="10.00">+ TestOrderManager()</text>
<text text-anchor="start" x="471" y="-18.5" font-family="Helvetica,sans-Serif" font-size="10.00">+ hmac()</text>
<text text-anchor="start" x="471" y="-7.5" font-family="Helvetica,sans-Serif" font-size="10.00">+ base64_encode()</text>
</a>
</g>
</g>
<!-- Node1&#45;&gt;Node5 -->
<g id="edge4" class="edge">
<title>Node1&#45;&gt;Node5</title>
<path fill="none" stroke="midnightblue" d="M388.79,-135.16C413.77,-120.71 441.13,-104.88 465.73,-90.64"/>
<polygon fill="none" stroke="midnightblue" points="386.97,-132.18 380.07,-140.21 390.48,-138.23 386.97,-132.18"/>
</g>
</g>
</svg>
