<?xml version="1.0" encoding="UTF-8" standalone="no"?>
<!DOCTYPE svg PUBLIC "-//W3C//DTD SVG 1.1//EN"
 "http://www.w3.org/Graphics/SVG/1.1/DTD/svg11.dtd">
<!-- Generated by graphviz version 2.43.0 (0)
 -->
<!-- Title: ScalpingBacktesting Pages: 1 -->
<svg width="164pt" height="613pt"
 viewBox="0.00 0.00 164.00 613.00" xmlns="http://www.w3.org/2000/svg" xmlns:xlink="http://www.w3.org/1999/xlink">
<g id="graph0" class="graph" transform="scale(1 1) rotate(0) translate(4 609)">
<title>ScalpingBacktesting</title>
<polygon fill="white" stroke="transparent" points="-4,4 -4,-609 160,-609 160,4 -4,4"/>
<!-- Node1 -->
<g id="node1" class="node">
<title>Node1</title>
<g id="a_node1"><a xlink:title=" ">
<polygon fill="#bfbfbf" stroke="black" points="10,-0.5 10,-68.5 126,-68.5 126,-0.5 10,-0.5"/>
<text text-anchor="middle" x="68" y="-56.5" font-family="Helvetica,sans-Serif" font-size="10.00">ScalpingBacktesting</text>
<polyline fill="none" stroke="black" points="10,-49.5 126,-49.5 "/>
<text text-anchor="start" x="18" y="-37.5" font-family="Helvetica,sans-Serif" font-size="10.00">+ data_dir</text>
<polyline fill="none" stroke="black" points="10,-30.5 126,-30.5 "/>
<text text-anchor="start" x="18" y="-18.5" font-family="Helvetica,sans-Serif" font-size="10.00"># SetUp()</text>
<text text-anchor="start" x="18" y="-7.5" font-family="Helvetica,sans-Serif" font-size="10.00"># TearDown()</text>
</a>
</g>
</g>
<!-- Node2 -->
<g id="node2" class="node">
<title>Node2</title>
<g id="a_node2"><a xlink:href="classScalpingStr.html" target="_top" xlink:title=" ">
<polygon fill="white" stroke="black" points="8.5,-116.5 8.5,-250.5 127.5,-250.5 127.5,-116.5 8.5,-116.5"/>
<text text-anchor="middle" x="68" y="-238.5" font-family="Helvetica,sans-Serif" font-size="10.00">ScalpingStr</text>
<polyline fill="none" stroke="black" points="8.5,-231.5 127.5,-231.5 "/>
<text text-anchor="middle" x="68" y="-219.5" font-family="Helvetica,sans-Serif" font-size="10.00"> </text>
<polyline fill="none" stroke="black" points="8.5,-212.5 127.5,-212.5 "/>
<text text-anchor="start" x="16.5" y="-200.5" font-family="Helvetica,sans-Serif" font-size="10.00">+ ScalpingStr()</text>
<text text-anchor="start" x="16.5" y="-189.5" font-family="Helvetica,sans-Serif" font-size="10.00">+ ScalpingStr()</text>
<text text-anchor="start" x="16.5" y="-178.5" font-family="Helvetica,sans-Serif" font-size="10.00">+ set_parameters()</text>
<text text-anchor="start" x="16.5" y="-167.5" font-family="Helvetica,sans-Serif" font-size="10.00">+ should_buy()</text>
<text text-anchor="start" x="16.5" y="-156.5" font-family="Helvetica,sans-Serif" font-size="10.00">+ should_sell()</text>
<text text-anchor="start" x="16.5" y="-145.5" font-family="Helvetica,sans-Serif" font-size="10.00">+ execute()</text>
<text text-anchor="start" x="16.5" y="-134.5" font-family="Helvetica,sans-Serif" font-size="10.00">+ execute()</text>
<text text-anchor="start" x="16.5" y="-123.5" font-family="Helvetica,sans-Serif" font-size="10.00">+ wrapper_execute()</text>
</a>
</g>
</g>
<!-- Node2&#45;&gt;Node1 -->
<g id="edge1" class="edge">
<title>Node2&#45;&gt;Node1</title>
<path fill="none" stroke="#404040" d="M68,-116.31C68,-104.35 68,-92.13 68,-80.93"/>
<polygon fill="none" stroke="#404040" points="68,-80.79 64,-74.79 68,-68.79 72,-74.79 68,-80.79"/>
<text text-anchor="middle" x="86.5" y="-90" font-family="Helvetica,sans-Serif" font-size="10.00"> +scalp</text>
</g>
<!-- Node3 -->
<g id="node3" class="node">
<title>Node3</title>
<g id="a_node3"><a xlink:href="classTradingStrategy.html" target="_top" xlink:title=" ">
<polygon fill="white" stroke="black" points="0,-288.5 0,-466.5 136,-466.5 136,-288.5 0,-288.5"/>
<text text-anchor="middle" x="68" y="-454.5" font-family="Helvetica,sans-Serif" font-size="10.00">TradingStrategy</text>
<polyline fill="none" stroke="black" points="0,-447.5 136,-447.5 "/>
<text text-anchor="start" x="8" y="-435.5" font-family="Helvetica,sans-Serif" font-size="10.00"># is_backtesting</text>
<text text-anchor="start" x="8" y="-424.5" font-family="Helvetica,sans-Serif" font-size="10.00"># binanceOrderManager</text>
<text text-anchor="start" x="8" y="-413.5" font-family="Helvetica,sans-Serif" font-size="10.00"># symbol</text>
<text text-anchor="start" x="8" y="-402.5" font-family="Helvetica,sans-Serif" font-size="10.00"># balance</text>
<text text-anchor="start" x="8" y="-391.5" font-family="Helvetica,sans-Serif" font-size="10.00"># position_open</text>
<text text-anchor="start" x="8" y="-380.5" font-family="Helvetica,sans-Serif" font-size="10.00"># entry_price</text>
<text text-anchor="start" x="8" y="-369.5" font-family="Helvetica,sans-Serif" font-size="10.00"># asset_quantity</text>
<polyline fill="none" stroke="black" points="0,-362.5 136,-362.5 "/>
<text text-anchor="start" x="8" y="-350.5" font-family="Helvetica,sans-Serif" font-size="10.00">+ TradingStrategy()</text>
<text text-anchor="start" x="8" y="-339.5" font-family="Helvetica,sans-Serif" font-size="10.00">+ ~TradingStrategy()</text>
<text text-anchor="start" x="8" y="-328.5" font-family="Helvetica,sans-Serif" font-size="10.00">+ extract_prices()</text>
<text text-anchor="start" x="8" y="-317.5" font-family="Helvetica,sans-Serif" font-size="10.00"># should_buy()</text>
<text text-anchor="start" x="8" y="-306.5" font-family="Helvetica,sans-Serif" font-size="10.00"># should_sell()</text>
<text text-anchor="start" x="8" y="-295.5" font-family="Helvetica,sans-Serif" font-size="10.00"># execute()</text>
</a>
</g>
</g>
<!-- Node3&#45;&gt;Node2 -->
<g id="edge2" class="edge">
<title>Node3&#45;&gt;Node2</title>
<path fill="none" stroke="midnightblue" d="M68,-278.21C68,-268.85 68,-259.51 68,-250.56"/>
<polygon fill="none" stroke="midnightblue" points="64.5,-278.37 68,-288.37 71.5,-278.37 64.5,-278.37"/>
</g>
<!-- Node4 -->
<g id="node4" class="node">
<title>Node4</title>
<g id="a_node4"><a xlink:href="structTradingParams.html" target="_top" xlink:title=" ">
<polygon fill="white" stroke="black" points="24,-514.5 24,-604.5 112,-604.5 112,-514.5 24,-514.5"/>
<text text-anchor="middle" x="68" y="-592.5" font-family="Helvetica,sans-Serif" font-size="10.00">TradingParams</text>
<polyline fill="none" stroke="black" points="24,-585.5 112,-585.5 "/>
<text text-anchor="start" x="32" y="-573.5" font-family="Helvetica,sans-Serif" font-size="10.00">+ sma_short</text>
<text text-anchor="start" x="32" y="-562.5" font-family="Helvetica,sans-Serif" font-size="10.00">+ sma_long</text>
<text text-anchor="start" x="32" y="-551.5" font-family="Helvetica,sans-Serif" font-size="10.00">+ rsi_value</text>
<text text-anchor="start" x="32" y="-540.5" font-family="Helvetica,sans-Serif" font-size="10.00">+ rsi_prev</text>
<polyline fill="none" stroke="black" points="24,-533.5 112,-533.5 "/>
<text text-anchor="middle" x="68" y="-521.5" font-family="Helvetica,sans-Serif" font-size="10.00"> </text>
</a>
</g>
</g>
<!-- Node4&#45;&gt;Node3 -->
<g id="edge3" class="edge">
<title>Node4&#45;&gt;Node3</title>
<path fill="none" stroke="#404040" d="M68,-514.47C68,-503.5 68,-491.3 68,-478.82"/>
<polygon fill="none" stroke="#404040" points="68,-478.81 64,-472.81 68,-466.81 72,-472.81 68,-478.81"/>
<text text-anchor="middle" x="112" y="-488" font-family="Helvetica,sans-Serif" font-size="10.00"> #trading_params</text>
</g>
</g>
</svg>
