<?xml version="1.0" encoding="UTF-8" standalone="no"?>
<!DOCTYPE svg PUBLIC "-//W3C//DTD SVG 1.1//EN"
 "http://www.w3.org/Graphics/SVG/1.1/DTD/svg11.dtd">
<!-- Generated by graphviz version 2.43.0 (0)
 -->
<!-- Title: TradingStrategy Pages: 1 -->
<svg width="612pt" height="369pt"
 viewBox="0.00 0.00 612.00 369.00" xmlns="http://www.w3.org/2000/svg" xmlns:xlink="http://www.w3.org/1999/xlink">
<g id="graph0" class="graph" transform="scale(1 1) rotate(0) translate(4 365)">
<title>TradingStrategy</title>
<polygon fill="white" stroke="transparent" points="-4,4 -4,-365 608,-365 608,4 -4,4"/>
<!-- Node1 -->
<g id="node1" class="node">
<title>Node1</title>
<g id="a_node1"><a xlink:title=" ">
<polygon fill="#bfbfbf" stroke="black" points="244.5,-171.5 244.5,-360.5 380.5,-360.5 380.5,-171.5 244.5,-171.5"/>
<text text-anchor="middle" x="312.5" y="-348.5" font-family="Helvetica,sans-Serif" font-size="10.00">TradingStrategy</text>
<polyline fill="none" stroke="black" points="244.5,-341.5 380.5,-341.5 "/>
<text text-anchor="start" x="252.5" y="-329.5" font-family="Helvetica,sans-Serif" font-size="10.00"># is_backtesting</text>
<text text-anchor="start" x="252.5" y="-318.5" font-family="Helvetica,sans-Serif" font-size="10.00"># binanceOrderManager</text>
<text text-anchor="start" x="252.5" y="-307.5" font-family="Helvetica,sans-Serif" font-size="10.00"># symbol</text>
<text text-anchor="start" x="252.5" y="-296.5" font-family="Helvetica,sans-Serif" font-size="10.00"># trading_params</text>
<text text-anchor="start" x="252.5" y="-285.5" font-family="Helvetica,sans-Serif" font-size="10.00"># balance</text>
<text text-anchor="start" x="252.5" y="-274.5" font-family="Helvetica,sans-Serif" font-size="10.00"># position_open</text>
<text text-anchor="start" x="252.5" y="-263.5" font-family="Helvetica,sans-Serif" font-size="10.00"># entry_price</text>
<text text-anchor="start" x="252.5" y="-252.5" font-family="Helvetica,sans-Serif" font-size="10.00"># asset_quantity</text>
<polyline fill="none" stroke="black" points="244.5,-245.5 380.5,-245.5 "/>
<text text-anchor="start" x="252.5" y="-233.5" font-family="Helvetica,sans-Serif" font-size="10.00">+ TradingStrategy()</text>
<text text-anchor="start" x="252.5" y="-222.5" font-family="Helvetica,sans-Serif" font-size="10.00">+ ~TradingStrategy()</text>
<text text-anchor="start" x="252.5" y="-211.5" font-family="Helvetica,sans-Serif" font-size="10.00">+ extract_prices()</text>
<text text-anchor="start" x="252.5" y="-200.5" font-family="Helvetica,sans-Serif" font-size="10.00"># should_buy()</text>
<text text-anchor="start" x="252.5" y="-189.5" font-family="Helvetica,sans-Serif" font-size="10.00"># should_sell()</text>
<text text-anchor="start" x="252.5" y="-178.5" font-family="Helvetica,sans-Serif" font-size="10.00"># execute()</text>
</a>
</g>
</g>
<!-- Node2 -->
<g id="node2" class="node">
<title>Node2</title>
<g id="a_node2"><a xlink:href="classArimaGarchAdaptive.html" target="_top" xlink:title=" ">
<polygon fill="white" stroke="black" points="0,-11.5 0,-123.5 137,-123.5 137,-11.5 0,-11.5"/>
<text text-anchor="middle" x="68.5" y="-111.5" font-family="Helvetica,sans-Serif" font-size="10.00">ArimaGarchAdaptive</text>
<polyline fill="none" stroke="black" points="0,-104.5 137,-104.5 "/>
<text text-anchor="middle" x="68.5" y="-92.5" font-family="Helvetica,sans-Serif" font-size="10.00"> </text>
<polyline fill="none" stroke="black" points="0,-85.5 137,-85.5 "/>
<text text-anchor="start" x="8" y="-73.5" font-family="Helvetica,sans-Serif" font-size="10.00">+ ArimaGarchAdaptive()</text>
<text text-anchor="start" x="8" y="-62.5" font-family="Helvetica,sans-Serif" font-size="10.00">+ ArimaGarchAdaptive()</text>
<text text-anchor="start" x="8" y="-51.5" font-family="Helvetica,sans-Serif" font-size="10.00">+ ArimaGarchAdaptive()</text>
<text text-anchor="start" x="8" y="-40.5" font-family="Helvetica,sans-Serif" font-size="10.00">+ ArimaGarchAdaptive()</text>
<text text-anchor="start" x="8" y="-29.5" font-family="Helvetica,sans-Serif" font-size="10.00">+ execute()</text>
<text text-anchor="start" x="8" y="-18.5" font-family="Helvetica,sans-Serif" font-size="10.00">+ wrapper_execute()</text>
</a>
</g>
</g>
<!-- Node1&#45;&gt;Node2 -->
<g id="edge1" class="edge">
<title>Node1&#45;&gt;Node2</title>
<path fill="none" stroke="midnightblue" d="M236.26,-206.36C207.87,-184.25 175.52,-158.71 146.5,-135 141.95,-131.28 137.28,-127.42 132.59,-123.51"/>
<polygon fill="none" stroke="midnightblue" points="234.11,-209.12 244.15,-212.5 238.41,-203.6 234.11,-209.12"/>
</g>
<!-- Node3 -->
<g id="node3" class="node">
<title>Node3</title>
<g id="a_node3"><a xlink:href="classBayesianSignalFiltering.html" target="_top" xlink:title=" ">
<polygon fill="white" stroke="black" points="155.5,-17 155.5,-118 305.5,-118 305.5,-17 155.5,-17"/>
<text text-anchor="middle" x="230.5" y="-106" font-family="Helvetica,sans-Serif" font-size="10.00">BayesianSignalFiltering</text>
<polyline fill="none" stroke="black" points="155.5,-99 305.5,-99 "/>
<text text-anchor="middle" x="230.5" y="-87" font-family="Helvetica,sans-Serif" font-size="10.00"> </text>
<polyline fill="none" stroke="black" points="155.5,-80 305.5,-80 "/>
<text text-anchor="start" x="163.5" y="-68" font-family="Helvetica,sans-Serif" font-size="10.00">+ BayesianSignalFiltering()</text>
<text text-anchor="start" x="163.5" y="-57" font-family="Helvetica,sans-Serif" font-size="10.00">+ BayesianSignalFiltering()</text>
<text text-anchor="start" x="163.5" y="-46" font-family="Helvetica,sans-Serif" font-size="10.00">+ set_parameters()</text>
<text text-anchor="start" x="163.5" y="-35" font-family="Helvetica,sans-Serif" font-size="10.00">+ execute()</text>
<text text-anchor="start" x="163.5" y="-24" font-family="Helvetica,sans-Serif" font-size="10.00">+ wrapper_execute()</text>
</a>
</g>
</g>
<!-- Node1&#45;&gt;Node3 -->
<g id="edge2" class="edge">
<title>Node1&#45;&gt;Node3</title>
<path fill="none" stroke="midnightblue" d="M269.46,-161.87C263.11,-146.64 256.82,-131.58 251.21,-118.13"/>
<polygon fill="none" stroke="midnightblue" points="266.34,-163.47 273.42,-171.35 272.8,-160.78 266.34,-163.47"/>
</g>
<!-- Node4 -->
<g id="node4" class="node">
<title>Node4</title>
<g id="a_node4"><a xlink:href="classMeanReverseStrategy.html" target="_top" xlink:title=" ">
<polygon fill="white" stroke="black" points="324,-17 324,-118 467,-118 467,-17 324,-17"/>
<text text-anchor="middle" x="395.5" y="-106" font-family="Helvetica,sans-Serif" font-size="10.00">MeanReverseStrategy</text>
<polyline fill="none" stroke="black" points="324,-99 467,-99 "/>
<text text-anchor="middle" x="395.5" y="-87" font-family="Helvetica,sans-Serif" font-size="10.00"> </text>
<polyline fill="none" stroke="black" points="324,-80 467,-80 "/>
<text text-anchor="start" x="332" y="-68" font-family="Helvetica,sans-Serif" font-size="10.00">+ MeanReverseStrategy()</text>
<text text-anchor="start" x="332" y="-57" font-family="Helvetica,sans-Serif" font-size="10.00">+ MeanReverseStrategy()</text>
<text text-anchor="start" x="332" y="-46" font-family="Helvetica,sans-Serif" font-size="10.00">+ set_parameters()</text>
<text text-anchor="start" x="332" y="-35" font-family="Helvetica,sans-Serif" font-size="10.00">+ execute()</text>
<text text-anchor="start" x="332" y="-24" font-family="Helvetica,sans-Serif" font-size="10.00">+ wrapper_execute()</text>
</a>
</g>
</g>
<!-- Node1&#45;&gt;Node4 -->
<g id="edge3" class="edge">
<title>Node1&#45;&gt;Node4</title>
<path fill="none" stroke="midnightblue" d="M356.06,-161.87C362.49,-146.64 368.86,-131.58 374.54,-118.13"/>
<polygon fill="none" stroke="midnightblue" points="352.72,-160.78 352.06,-171.35 359.17,-163.5 352.72,-160.78"/>
</g>
<!-- Node5 -->
<g id="node5" class="node">
<title>Node5</title>
<g id="a_node5"><a xlink:href="classScalpingStr.html" target="_top" xlink:title=" ">
<polygon fill="white" stroke="black" points="485,-0.5 485,-134.5 604,-134.5 604,-0.5 485,-0.5"/>
<text text-anchor="middle" x="544.5" y="-122.5" font-family="Helvetica,sans-Serif" font-size="10.00">ScalpingStr</text>
<polyline fill="none" stroke="black" points="485,-115.5 604,-115.5 "/>
<text text-anchor="middle" x="544.5" y="-103.5" font-family="Helvetica,sans-Serif" font-size="10.00"> </text>
<polyline fill="none" stroke="black" points="485,-96.5 604,-96.5 "/>
<text text-anchor="start" x="493" y="-84.5" font-family="Helvetica,sans-Serif" font-size="10.00">+ ScalpingStr()</text>
<text text-anchor="start" x="493" y="-73.5" font-family="Helvetica,sans-Serif" font-size="10.00">+ ScalpingStr()</text>
<text text-anchor="start" x="493" y="-62.5" font-family="Helvetica,sans-Serif" font-size="10.00">+ set_parameters()</text>
<text text-anchor="start" x="493" y="-51.5" font-family="Helvetica,sans-Serif" font-size="10.00">+ should_buy()</text>
<text text-anchor="start" x="493" y="-40.5" font-family="Helvetica,sans-Serif" font-size="10.00">+ should_sell()</text>
<text text-anchor="start" x="493" y="-29.5" font-family="Helvetica,sans-Serif" font-size="10.00">+ execute()</text>
<text text-anchor="start" x="493" y="-18.5" font-family="Helvetica,sans-Serif" font-size="10.00">+ execute()</text>
<text text-anchor="start" x="493" y="-7.5" font-family="Helvetica,sans-Serif" font-size="10.00">+ wrapper_execute()</text>
</a>
</g>
</g>
<!-- Node1&#45;&gt;Node5 -->
<g id="edge4" class="edge">
<title>Node1&#45;&gt;Node5</title>
<path fill="none" stroke="midnightblue" d="M389.01,-207.02C417.05,-185.08 448.71,-159.48 476.5,-135 479.23,-132.6 481.99,-130.12 484.75,-127.59"/>
<polygon fill="none" stroke="midnightblue" points="386.55,-204.5 380.81,-213.41 390.85,-210.02 386.55,-204.5"/>
</g>
</g>
</svg>
