<?xml version="1.0" encoding="UTF-8" standalone="no"?>
<!DOCTYPE svg PUBLIC "-//W3C//DTD SVG 1.1//EN"
 "http://www.w3.org/Graphics/SVG/1.1/DTD/svg11.dtd">
<!-- Generated by graphviz version 2.43.0 (0)
 -->
<!-- Title: MeanReversalAdaptiveParameters Pages: 1 -->
<svg width="193pt" height="281pt"
 viewBox="0.00 0.00 193.00 281.00" xmlns="http://www.w3.org/2000/svg" xmlns:xlink="http://www.w3.org/1999/xlink">
<g id="graph0" class="graph" transform="scale(1 1) rotate(0) translate(4 277)">
<title>MeanReversalAdaptiveParameters</title>
<polygon fill="white" stroke="transparent" points="-4,4 -4,-277 189,-277 189,4 -4,4"/>
<!-- Node1 -->
<g id="node1" class="node">
<title>Node1</title>
<g id="a_node1"><a xlink:title=" ">
<polygon fill="#bfbfbf" stroke="black" points="0,-0.5 0,-167.5 185,-167.5 185,-0.5 0,-0.5"/>
<text text-anchor="middle" x="92.5" y="-155.5" font-family="Helvetica,sans-Serif" font-size="10.00">MeanReversalAdaptiveParameters</text>
<polyline fill="none" stroke="black" points="0,-148.5 185,-148.5 "/>
<text text-anchor="start" x="8" y="-136.5" font-family="Helvetica,sans-Serif" font-size="10.00">+ base_window_size</text>
<text text-anchor="start" x="8" y="-125.5" font-family="Helvetica,sans-Serif" font-size="10.00">+ base_sma_short</text>
<text text-anchor="start" x="8" y="-114.5" font-family="Helvetica,sans-Serif" font-size="10.00">+ base_sma_long</text>
<text text-anchor="start" x="8" y="-103.5" font-family="Helvetica,sans-Serif" font-size="10.00">+ base_rsi_oversold</text>
<text text-anchor="start" x="8" y="-92.5" font-family="Helvetica,sans-Serif" font-size="10.00">+ base_rsi_overbought</text>
<text text-anchor="start" x="8" y="-81.5" font-family="Helvetica,sans-Serif" font-size="10.00">+ window_size</text>
<text text-anchor="start" x="8" y="-70.5" font-family="Helvetica,sans-Serif" font-size="10.00">+ sma_short</text>
<text text-anchor="start" x="8" y="-59.5" font-family="Helvetica,sans-Serif" font-size="10.00">+ sma_long</text>
<text text-anchor="start" x="8" y="-48.5" font-family="Helvetica,sans-Serif" font-size="10.00">+ rsi_oversold</text>
<text text-anchor="start" x="8" y="-37.5" font-family="Helvetica,sans-Serif" font-size="10.00">+ rsi_overbought</text>
<polyline fill="none" stroke="black" points="0,-30.5 185,-30.5 "/>
<text text-anchor="start" x="8" y="-18.5" font-family="Helvetica,sans-Serif" font-size="10.00">+ updateParameters()</text>
<text text-anchor="start" x="8" y="-7.5" font-family="Helvetica,sans-Serif" font-size="10.00">+ getParameters()</text>
</a>
</g>
</g>
<!-- Node2 -->
<g id="node2" class="node">
<title>Node2</title>
<g id="a_node2"><a xlink:href="classAdaptiveParameters.html" target="_top" xlink:title=" ">
<polygon fill="white" stroke="black" points="21,-204.5 21,-272.5 164,-272.5 164,-204.5 21,-204.5"/>
<text text-anchor="middle" x="92.5" y="-260.5" font-family="Helvetica,sans-Serif" font-size="10.00">AdaptiveParameters</text>
<polyline fill="none" stroke="black" points="21,-253.5 164,-253.5 "/>
<text text-anchor="start" x="29" y="-241.5" font-family="Helvetica,sans-Serif" font-size="10.00">+ dynamic</text>
<polyline fill="none" stroke="black" points="21,-234.5 164,-234.5 "/>
<text text-anchor="start" x="29" y="-222.5" font-family="Helvetica,sans-Serif" font-size="10.00">+ ~AdaptiveParameters()</text>
<text text-anchor="start" x="29" y="-211.5" font-family="Helvetica,sans-Serif" font-size="10.00">+ updateParameters()</text>
</a>
</g>
</g>
<!-- Node2&#45;&gt;Node1 -->
<g id="edge1" class="edge">
<title>Node2&#45;&gt;Node1</title>
<path fill="none" stroke="midnightblue" d="M92.5,-194.23C92.5,-185.88 92.5,-176.89 92.5,-167.76"/>
<polygon fill="none" stroke="midnightblue" points="89,-194.41 92.5,-204.41 96,-194.41 89,-194.41"/>
</g>
</g>
</svg>
