<?xml version="1.0" encoding="UTF-8" standalone="no"?>
<!DOCTYPE svg PUBLIC "-//W3C//DTD SVG 1.1//EN"
 "http://www.w3.org/Graphics/SVG/1.1/DTD/svg11.dtd">
<!-- Generated by graphviz version 2.43.0 (0)
 -->
<!-- Title: OrderManagerTest::TestOrderManager Pages: 1 -->
<svg width="166pt" height="248pt"
 viewBox="0.00 0.00 166.00 248.00" xmlns="http://www.w3.org/2000/svg" xmlns:xlink="http://www.w3.org/1999/xlink">
<g id="graph0" class="graph" transform="scale(1 1) rotate(0) translate(4 244)">
<title>OrderManagerTest::TestOrderManager</title>
<polygon fill="white" stroke="transparent" points="-4,4 -4,-244 162,-244 162,4 -4,4"/>
<!-- Node1 -->
<g id="node1" class="node">
<title>Node1</title>
<g id="a_node1"><a xlink:title=" ">
<polygon fill="#bfbfbf" stroke="black" points="0,-0.5 0,-90.5 158,-90.5 158,-0.5 0,-0.5"/>
<text text-anchor="start" x="8" y="-78.5" font-family="Helvetica,sans-Serif" font-size="10.00">OrderManagerTest::TestOrder</text>
<text text-anchor="middle" x="79" y="-67.5" font-family="Helvetica,sans-Serif" font-size="10.00">Manager</text>
<polyline fill="none" stroke="black" points="0,-60.5 158,-60.5 "/>
<text text-anchor="middle" x="79" y="-48.5" font-family="Helvetica,sans-Serif" font-size="10.00"> </text>
<polyline fill="none" stroke="black" points="0,-41.5 158,-41.5 "/>
<text text-anchor="start" x="8" y="-29.5" font-family="Helvetica,sans-Serif" font-size="10.00">+ TestOrderManager()</text>
<text text-anchor="start" x="8" y="-18.5" font-family="Helvetica,sans-Serif" font-size="10.00">+ hmac()</text>
<text text-anchor="start" x="8" y="-7.5" font-family="Helvetica,sans-Serif" font-size="10.00">+ base64_encode()</text>
</a>
</g>
</g>
<!-- Node2 -->
<g id="node2" class="node">
<title>Node2</title>
<g id="a_node2"><a xlink:href="classAbstractOrderManager.html" target="_top" xlink:title=" ">
<polygon fill="white" stroke="black" points="6,-127.5 6,-239.5 152,-239.5 152,-127.5 6,-127.5"/>
<text text-anchor="middle" x="79" y="-227.5" font-family="Helvetica,sans-Serif" font-size="10.00">AbstractOrderManager</text>
<polyline fill="none" stroke="black" points="6,-220.5 152,-220.5 "/>
<text text-anchor="start" x="14" y="-208.5" font-family="Helvetica,sans-Serif" font-size="10.00"># api_key</text>
<text text-anchor="start" x="14" y="-197.5" font-family="Helvetica,sans-Serif" font-size="10.00"># api_secret</text>
<polyline fill="none" stroke="black" points="6,-190.5 152,-190.5 "/>
<text text-anchor="start" x="14" y="-178.5" font-family="Helvetica,sans-Serif" font-size="10.00"># AbstractOrderManager()</text>
<text text-anchor="start" x="14" y="-167.5" font-family="Helvetica,sans-Serif" font-size="10.00"># hmac()</text>
<text text-anchor="start" x="14" y="-156.5" font-family="Helvetica,sans-Serif" font-size="10.00"># base64_encode()</text>
<text text-anchor="start" x="14" y="-145.5" font-family="Helvetica,sans-Serif" font-size="10.00"># send_post_request()</text>
<text text-anchor="start" x="14" y="-134.5" font-family="Helvetica,sans-Serif" font-size="10.00"># write_callback()</text>
</a>
</g>
</g>
<!-- Node2&#45;&gt;Node1 -->
<g id="edge1" class="edge">
<title>Node2&#45;&gt;Node1</title>
<path fill="none" stroke="midnightblue" d="M79,-117.08C79,-108.07 79,-99.01 79,-90.51"/>
<polygon fill="none" stroke="midnightblue" points="75.5,-117.18 79,-127.18 82.5,-117.18 75.5,-117.18"/>
</g>
</g>
</svg>
