<?xml version="1.0" encoding="UTF-8" standalone="no"?>
<!DOCTYPE svg PUBLIC "-//W3C//DTD SVG 1.1//EN"
 "http://www.w3.org/Graphics/SVG/1.1/DTD/svg11.dtd">
<!-- Generated by graphviz version 2.43.0 (0)
 -->
<!-- Title: BinanceScalping Pages: 1 -->
<svg width="734pt" height="413pt"
 viewBox="0.00 0.00 734.00 413.00" xmlns="http://www.w3.org/2000/svg" xmlns:xlink="http://www.w3.org/1999/xlink">
<g id="graph0" class="graph" transform="scale(1 1) rotate(0) translate(4 409)">
<title>BinanceScalping</title>
<polygon fill="white" stroke="transparent" points="-4,4 -4,-409 730,-409 730,4 -4,4"/>
<!-- Node1 -->
<g id="node1" class="node">
<title>Node1</title>
<g id="a_node1"><a xlink:title=" ">
<polygon fill="#bfbfbf" stroke="black" points="266,-160.5 266,-404.5 390,-404.5 390,-160.5 266,-160.5"/>
<text text-anchor="middle" x="328" y="-392.5" font-family="Helvetica,sans-Serif" font-size="10.00">BinanceScalping</text>
<polyline fill="none" stroke="black" points="266,-385.5 390,-385.5 "/>
<text text-anchor="start" x="274" y="-373.5" font-family="Helvetica,sans-Serif" font-size="10.00"># host</text>
<text text-anchor="start" x="274" y="-362.5" font-family="Helvetica,sans-Serif" font-size="10.00"># port</text>
<text text-anchor="start" x="274" y="-351.5" font-family="Helvetica,sans-Serif" font-size="10.00"># target</text>
<text text-anchor="start" x="274" y="-340.5" font-family="Helvetica,sans-Serif" font-size="10.00"># json_raw_data</text>
<text text-anchor="start" x="274" y="-329.5" font-family="Helvetica,sans-Serif" font-size="10.00"># m_version</text>
<text text-anchor="start" x="274" y="-318.5" font-family="Helvetica,sans-Serif" font-size="10.00"># ioc</text>
<text text-anchor="start" x="274" y="-307.5" font-family="Helvetica,sans-Serif" font-size="10.00"># ctx</text>
<text text-anchor="start" x="274" y="-296.5" font-family="Helvetica,sans-Serif" font-size="10.00"># stream</text>
<text text-anchor="start" x="274" y="-285.5" font-family="Helvetica,sans-Serif" font-size="10.00"># is_connected</text>
<polyline fill="none" stroke="black" points="266,-278.5 390,-278.5 "/>
<text text-anchor="start" x="274" y="-266.5" font-family="Helvetica,sans-Serif" font-size="10.00">+ BinanceScalping()</text>
<text text-anchor="start" x="274" y="-255.5" font-family="Helvetica,sans-Serif" font-size="10.00">+ BinanceScalping()</text>
<text text-anchor="start" x="274" y="-244.5" font-family="Helvetica,sans-Serif" font-size="10.00">+ BinanceScalping()</text>
<text text-anchor="start" x="274" y="-233.5" font-family="Helvetica,sans-Serif" font-size="10.00">+ operator=()</text>
<text text-anchor="start" x="274" y="-222.5" font-family="Helvetica,sans-Serif" font-size="10.00">+ operator=()</text>
<text text-anchor="start" x="274" y="-211.5" font-family="Helvetica,sans-Serif" font-size="10.00">+ BinanceScalping()</text>
<text text-anchor="start" x="274" y="-200.5" font-family="Helvetica,sans-Serif" font-size="10.00">+ fetch_raw_data()</text>
<text text-anchor="start" x="274" y="-189.5" font-family="Helvetica,sans-Serif" font-size="10.00">+ fetch_raw_data()</text>
<text text-anchor="start" x="274" y="-178.5" font-family="Helvetica,sans-Serif" font-size="10.00">+ ~BinanceScalping()</text>
<text text-anchor="start" x="274" y="-167.5" font-family="Helvetica,sans-Serif" font-size="10.00">+ connect()</text>
</a>
</g>
</g>
<!-- Node2 -->
<g id="node2" class="node">
<title>Node2</title>
<g id="a_node2"><a xlink:href="classBinanceAPI.html" target="_top" xlink:title=" ">
<polygon fill="white" stroke="black" points="0,-28 0,-96 110,-96 110,-28 0,-28"/>
<text text-anchor="middle" x="55" y="-84" font-family="Helvetica,sans-Serif" font-size="10.00">BinanceAPI</text>
<polyline fill="none" stroke="black" points="0,-77 110,-77 "/>
<text text-anchor="middle" x="55" y="-65" font-family="Helvetica,sans-Serif" font-size="10.00"> </text>
<polyline fill="none" stroke="black" points="0,-58 110,-58 "/>
<text text-anchor="start" x="8" y="-46" font-family="Helvetica,sans-Serif" font-size="10.00">+ BinanceAPI()</text>
<text text-anchor="start" x="8" y="-35" font-family="Helvetica,sans-Serif" font-size="10.00">+ fetch_raw_data()</text>
</a>
</g>
</g>
<!-- Node1&#45;&gt;Node2 -->
<g id="edge1" class="edge">
<title>Node1&#45;&gt;Node2</title>
<path fill="none" stroke="midnightblue" d="M257.63,-231.6C216.34,-201.56 163.66,-161.89 119,-124 108.7,-115.26 97.92,-105.32 88.2,-96.04"/>
<polygon fill="none" stroke="midnightblue" points="255.58,-234.44 265.73,-237.48 259.69,-228.78 255.58,-234.44"/>
</g>
<!-- Node3 -->
<g id="node3" class="node">
<title>Node3</title>
<g id="a_node3"><a xlink:href="classKrakenAPI.html" target="_top" xlink:title=" ">
<polygon fill="white" stroke="black" points="128,-28 128,-96 238,-96 238,-28 128,-28"/>
<text text-anchor="middle" x="183" y="-84" font-family="Helvetica,sans-Serif" font-size="10.00">KrakenAPI</text>
<polyline fill="none" stroke="black" points="128,-77 238,-77 "/>
<text text-anchor="middle" x="183" y="-65" font-family="Helvetica,sans-Serif" font-size="10.00"> </text>
<polyline fill="none" stroke="black" points="128,-58 238,-58 "/>
<text text-anchor="start" x="136" y="-46" font-family="Helvetica,sans-Serif" font-size="10.00">+ KrakenAPI()</text>
<text text-anchor="start" x="136" y="-35" font-family="Helvetica,sans-Serif" font-size="10.00">+ fetch_raw_data()</text>
</a>
</g>
</g>
<!-- Node1&#45;&gt;Node3 -->
<g id="edge2" class="edge">
<title>Node1&#45;&gt;Node3</title>
<path fill="none" stroke="midnightblue" d="M260.26,-179.43C240.31,-149.35 219.86,-118.55 205.02,-96.19"/>
<polygon fill="none" stroke="midnightblue" points="257.43,-181.49 265.88,-187.89 263.26,-177.62 257.43,-181.49"/>
</g>
<!-- Node4 -->
<g id="node4" class="node">
<title>Node4</title>
<g id="a_node4"><a xlink:href="classLiveBinanceScalping.html" target="_top" xlink:title=" ">
<polygon fill="white" stroke="black" points="256,-0.5 256,-123.5 400,-123.5 400,-0.5 256,-0.5"/>
<text text-anchor="middle" x="328" y="-111.5" font-family="Helvetica,sans-Serif" font-size="10.00">LiveBinanceScalping</text>
<polyline fill="none" stroke="black" points="256,-104.5 400,-104.5 "/>
<text text-anchor="middle" x="328" y="-92.5" font-family="Helvetica,sans-Serif" font-size="10.00"> </text>
<polyline fill="none" stroke="black" points="256,-85.5 400,-85.5 "/>
<text text-anchor="start" x="264" y="-73.5" font-family="Helvetica,sans-Serif" font-size="10.00">+ get_price()</text>
<text text-anchor="start" x="264" y="-62.5" font-family="Helvetica,sans-Serif" font-size="10.00">+ LiveBinanceScalping()</text>
<text text-anchor="start" x="264" y="-51.5" font-family="Helvetica,sans-Serif" font-size="10.00">+ fetch_raw_data()</text>
<text text-anchor="start" x="264" y="-40.5" font-family="Helvetica,sans-Serif" font-size="10.00">+ get_price_map()</text>
<text text-anchor="start" x="264" y="-29.5" font-family="Helvetica,sans-Serif" font-size="10.00">+ generate_order_graph()</text>
<text text-anchor="start" x="264" y="-18.5" font-family="Helvetica,sans-Serif" font-size="10.00">+ ~LiveBinanceScalping()</text>
<text text-anchor="start" x="264" y="-7.5" font-family="Helvetica,sans-Serif" font-size="10.00">+ fetch_raw_data()</text>
</a>
</g>
</g>
<!-- Node1&#45;&gt;Node4 -->
<g id="edge3" class="edge">
<title>Node1&#45;&gt;Node4</title>
<path fill="none" stroke="midnightblue" d="M328,-150.37C328,-141.16 328,-132.17 328,-123.67"/>
<polygon fill="none" stroke="midnightblue" points="324.5,-150.43 328,-160.43 331.5,-150.43 324.5,-150.43"/>
</g>
<!-- Node5 -->
<g id="node5" class="node">
<title>Node5</title>
<g id="a_node5"><a xlink:href="classLiveBinanceScalpingCurrency.html" target="_top" xlink:title=" ">
<polygon fill="white" stroke="black" points="418.5,-17 418.5,-107 597.5,-107 597.5,-17 418.5,-17"/>
<text text-anchor="middle" x="508" y="-95" font-family="Helvetica,sans-Serif" font-size="10.00">LiveBinanceScalpingCurrency</text>
<polyline fill="none" stroke="black" points="418.5,-88 597.5,-88 "/>
<text text-anchor="middle" x="508" y="-76" font-family="Helvetica,sans-Serif" font-size="10.00"> </text>
<polyline fill="none" stroke="black" points="418.5,-69 597.5,-69 "/>
<text text-anchor="start" x="426.5" y="-57" font-family="Helvetica,sans-Serif" font-size="10.00">+ get_prices()</text>
<text text-anchor="start" x="426.5" y="-46" font-family="Helvetica,sans-Serif" font-size="10.00">+ LiveBinanceScalpingCurrency()</text>
<text text-anchor="start" x="426.5" y="-35" font-family="Helvetica,sans-Serif" font-size="10.00">+ fetch_raw_data()</text>
<text text-anchor="start" x="426.5" y="-24" font-family="Helvetica,sans-Serif" font-size="10.00">+ fetch_raw_data()</text>
</a>
</g>
</g>
<!-- Node1&#45;&gt;Node5 -->
<g id="edge4" class="edge">
<title>Node1&#45;&gt;Node5</title>
<path fill="none" stroke="midnightblue" d="M396.62,-198.2C422.11,-167.26 450.02,-133.38 471.53,-107.27"/>
<polygon fill="none" stroke="midnightblue" points="393.85,-196.06 390.2,-206 399.26,-200.51 393.85,-196.06"/>
</g>
<!-- Node6 -->
<g id="node6" class="node">
<title>Node6</title>
<g id="a_node6"><a xlink:href="classOKXAPI.html" target="_top" xlink:title=" ">
<polygon fill="white" stroke="black" points="616,-28 616,-96 726,-96 726,-28 616,-28"/>
<text text-anchor="middle" x="671" y="-84" font-family="Helvetica,sans-Serif" font-size="10.00">OKXAPI</text>
<polyline fill="none" stroke="black" points="616,-77 726,-77 "/>
<text text-anchor="middle" x="671" y="-65" font-family="Helvetica,sans-Serif" font-size="10.00"> </text>
<polyline fill="none" stroke="black" points="616,-58 726,-58 "/>
<text text-anchor="start" x="624" y="-46" font-family="Helvetica,sans-Serif" font-size="10.00">+ OKXAPI()</text>
<text text-anchor="start" x="624" y="-35" font-family="Helvetica,sans-Serif" font-size="10.00">+ fetch_raw_data()</text>
</a>
</g>
</g>
<!-- Node1&#45;&gt;Node6 -->
<g id="edge5" class="edge">
<title>Node1&#45;&gt;Node6</title>
<path fill="none" stroke="midnightblue" d="M399.38,-247.41C457.59,-218.18 540.71,-173.11 607,-124 618.1,-115.78 629.31,-105.79 639.17,-96.31"/>
<polygon fill="none" stroke="midnightblue" points="397.65,-244.37 390.26,-251.96 400.77,-250.63 397.65,-244.37"/>
</g>
</g>
</svg>
