<?xml version="1.0" encoding="UTF-8" standalone="no"?>
<!DOCTYPE svg PUBLIC "-//W3C//DTD SVG 1.1//EN"
 "http://www.w3.org/Graphics/SVG/1.1/DTD/svg11.dtd">
<!-- Generated by graphviz version 2.43.0 (0)
 -->
<!-- Title: ArimaGarchAdaptive Pages: 1 -->
<svg width="165pt" height="475pt"
 viewBox="0.00 0.00 164.50 475.00" xmlns="http://www.w3.org/2000/svg" xmlns:xlink="http://www.w3.org/1999/xlink">
<g id="graph0" class="graph" transform="scale(1 1) rotate(0) translate(4 471)">
<title>ArimaGarchAdaptive</title>
<polygon fill="white" stroke="transparent" points="-4,4 -4,-471 160.5,-471 160.5,4 -4,4"/>
<!-- Node1 -->
<g id="node1" class="node">
<title>Node1</title>
<g id="a_node1"><a xlink:title=" ">
<polygon fill="#bfbfbf" stroke="black" points="0,-0.5 0,-112.5 137,-112.5 137,-0.5 0,-0.5"/>
<text text-anchor="middle" x="68.5" y="-100.5" font-family="Helvetica,sans-Serif" font-size="10.00">ArimaGarchAdaptive</text>
<polyline fill="none" stroke="black" points="0,-93.5 137,-93.5 "/>
<text text-anchor="middle" x="68.5" y="-81.5" font-family="Helvetica,sans-Serif" font-size="10.00"> </text>
<polyline fill="none" stroke="black" points="0,-74.5 137,-74.5 "/>
<text text-anchor="start" x="8" y="-62.5" font-family="Helvetica,sans-Serif" font-size="10.00">+ ArimaGarchAdaptive()</text>
<text text-anchor="start" x="8" y="-51.5" font-family="Helvetica,sans-Serif" font-size="10.00">+ ArimaGarchAdaptive()</text>
<text text-anchor="start" x="8" y="-40.5" font-family="Helvetica,sans-Serif" font-size="10.00">+ ArimaGarchAdaptive()</text>
<text text-anchor="start" x="8" y="-29.5" font-family="Helvetica,sans-Serif" font-size="10.00">+ ArimaGarchAdaptive()</text>
<text text-anchor="start" x="8" y="-18.5" font-family="Helvetica,sans-Serif" font-size="10.00">+ execute()</text>
<text text-anchor="start" x="8" y="-7.5" font-family="Helvetica,sans-Serif" font-size="10.00">+ wrapper_execute()</text>
</a>
</g>
</g>
<!-- Node2 -->
<g id="node2" class="node">
<title>Node2</title>
<g id="a_node2"><a xlink:href="classTradingStrategy.html" target="_top" xlink:title=" ">
<polygon fill="white" stroke="black" points="0.5,-150.5 0.5,-328.5 136.5,-328.5 136.5,-150.5 0.5,-150.5"/>
<text text-anchor="middle" x="68.5" y="-316.5" font-family="Helvetica,sans-Serif" font-size="10.00">TradingStrategy</text>
<polyline fill="none" stroke="black" points="0.5,-309.5 136.5,-309.5 "/>
<text text-anchor="start" x="8.5" y="-297.5" font-family="Helvetica,sans-Serif" font-size="10.00"># is_backtesting</text>
<text text-anchor="start" x="8.5" y="-286.5" font-family="Helvetica,sans-Serif" font-size="10.00"># binanceOrderManager</text>
<text text-anchor="start" x="8.5" y="-275.5" font-family="Helvetica,sans-Serif" font-size="10.00"># symbol</text>
<text text-anchor="start" x="8.5" y="-264.5" font-family="Helvetica,sans-Serif" font-size="10.00"># balance</text>
<text text-anchor="start" x="8.5" y="-253.5" font-family="Helvetica,sans-Serif" font-size="10.00"># position_open</text>
<text text-anchor="start" x="8.5" y="-242.5" font-family="Helvetica,sans-Serif" font-size="10.00"># entry_price</text>
<text text-anchor="start" x="8.5" y="-231.5" font-family="Helvetica,sans-Serif" font-size="10.00"># asset_quantity</text>
<polyline fill="none" stroke="black" points="0.5,-224.5 136.5,-224.5 "/>
<text text-anchor="start" x="8.5" y="-212.5" font-family="Helvetica,sans-Serif" font-size="10.00">+ TradingStrategy()</text>
<text text-anchor="start" x="8.5" y="-201.5" font-family="Helvetica,sans-Serif" font-size="10.00">+ ~TradingStrategy()</text>
<text text-anchor="start" x="8.5" y="-190.5" font-family="Helvetica,sans-Serif" font-size="10.00">+ extract_prices()</text>
<text text-anchor="start" x="8.5" y="-179.5" font-family="Helvetica,sans-Serif" font-size="10.00"># should_buy()</text>
<text text-anchor="start" x="8.5" y="-168.5" font-family="Helvetica,sans-Serif" font-size="10.00"># should_sell()</text>
<text text-anchor="start" x="8.5" y="-157.5" font-family="Helvetica,sans-Serif" font-size="10.00"># execute()</text>
</a>
</g>
</g>
<!-- Node2&#45;&gt;Node1 -->
<g id="edge1" class="edge">
<title>Node2&#45;&gt;Node1</title>
<path fill="none" stroke="midnightblue" d="M68.5,-140.15C68.5,-130.73 68.5,-121.44 68.5,-112.66"/>
<polygon fill="none" stroke="midnightblue" points="65,-140.39 68.5,-150.39 72,-140.39 65,-140.39"/>
</g>
<!-- Node3 -->
<g id="node3" class="node">
<title>Node3</title>
<g id="a_node3"><a xlink:href="structTradingParams.html" target="_top" xlink:title=" ">
<polygon fill="white" stroke="black" points="24.5,-376.5 24.5,-466.5 112.5,-466.5 112.5,-376.5 24.5,-376.5"/>
<text text-anchor="middle" x="68.5" y="-454.5" font-family="Helvetica,sans-Serif" font-size="10.00">TradingParams</text>
<polyline fill="none" stroke="black" points="24.5,-447.5 112.5,-447.5 "/>
<text text-anchor="start" x="32.5" y="-435.5" font-family="Helvetica,sans-Serif" font-size="10.00">+ sma_short</text>
<text text-anchor="start" x="32.5" y="-424.5" font-family="Helvetica,sans-Serif" font-size="10.00">+ sma_long</text>
<text text-anchor="start" x="32.5" y="-413.5" font-family="Helvetica,sans-Serif" font-size="10.00">+ rsi_value</text>
<text text-anchor="start" x="32.5" y="-402.5" font-family="Helvetica,sans-Serif" font-size="10.00">+ rsi_prev</text>
<polyline fill="none" stroke="black" points="24.5,-395.5 112.5,-395.5 "/>
<text text-anchor="middle" x="68.5" y="-383.5" font-family="Helvetica,sans-Serif" font-size="10.00"> </text>
</a>
</g>
</g>
<!-- Node3&#45;&gt;Node2 -->
<g id="edge2" class="edge">
<title>Node3&#45;&gt;Node2</title>
<path fill="none" stroke="#404040" d="M68.5,-376.47C68.5,-365.5 68.5,-353.3 68.5,-340.82"/>
<polygon fill="none" stroke="#404040" points="68.5,-340.81 64.5,-334.81 68.5,-328.81 72.5,-334.81 68.5,-340.81"/>
<text text-anchor="middle" x="112.5" y="-350" font-family="Helvetica,sans-Serif" font-size="10.00"> #trading_params</text>
</g>
</g>
</svg>
