<?xml version="1.0" encoding="UTF-8" standalone="no"?>
<!DOCTYPE svg PUBLIC "-//W3C//DTD SVG 1.1//EN"
 "http://www.w3.org/Graphics/SVG/1.1/DTD/svg11.dtd">
<!-- Generated by graphviz version 2.43.0 (0)
 -->
<!-- Title: BayesianBacktesting Pages: 1 -->
<svg width="171pt" height="580pt"
 viewBox="0.00 0.00 171.00 580.00" xmlns="http://www.w3.org/2000/svg" xmlns:xlink="http://www.w3.org/1999/xlink">
<g id="graph0" class="graph" transform="scale(1 1) rotate(0) translate(4 576)">
<title>BayesianBacktesting</title>
<polygon fill="white" stroke="transparent" points="-4,4 -4,-576 167,-576 167,4 -4,4"/>
<!-- Node1 -->
<g id="node1" class="node">
<title>Node1</title>
<g id="a_node1"><a xlink:title=" ">
<polygon fill="#bfbfbf" stroke="black" points="15.5,-0.5 15.5,-68.5 134.5,-68.5 134.5,-0.5 15.5,-0.5"/>
<text text-anchor="middle" x="75" y="-56.5" font-family="Helvetica,sans-Serif" font-size="10.00">BayesianBacktesting</text>
<polyline fill="none" stroke="black" points="15.5,-49.5 134.5,-49.5 "/>
<text text-anchor="start" x="23.5" y="-37.5" font-family="Helvetica,sans-Serif" font-size="10.00">+ data_dir</text>
<polyline fill="none" stroke="black" points="15.5,-30.5 134.5,-30.5 "/>
<text text-anchor="start" x="23.5" y="-18.5" font-family="Helvetica,sans-Serif" font-size="10.00"># SetUp()</text>
<text text-anchor="start" x="23.5" y="-7.5" font-family="Helvetica,sans-Serif" font-size="10.00"># TearDown()</text>
</a>
</g>
</g>
<!-- Node2 -->
<g id="node2" class="node">
<title>Node2</title>
<g id="a_node2"><a xlink:href="classBayesianSignalFiltering.html" target="_top" xlink:title=" ">
<polygon fill="white" stroke="black" points="0,-116.5 0,-217.5 150,-217.5 150,-116.5 0,-116.5"/>
<text text-anchor="middle" x="75" y="-205.5" font-family="Helvetica,sans-Serif" font-size="10.00">BayesianSignalFiltering</text>
<polyline fill="none" stroke="black" points="0,-198.5 150,-198.5 "/>
<text text-anchor="middle" x="75" y="-186.5" font-family="Helvetica,sans-Serif" font-size="10.00"> </text>
<polyline fill="none" stroke="black" points="0,-179.5 150,-179.5 "/>
<text text-anchor="start" x="8" y="-167.5" font-family="Helvetica,sans-Serif" font-size="10.00">+ BayesianSignalFiltering()</text>
<text text-anchor="start" x="8" y="-156.5" font-family="Helvetica,sans-Serif" font-size="10.00">+ BayesianSignalFiltering()</text>
<text text-anchor="start" x="8" y="-145.5" font-family="Helvetica,sans-Serif" font-size="10.00">+ set_parameters()</text>
<text text-anchor="start" x="8" y="-134.5" font-family="Helvetica,sans-Serif" font-size="10.00">+ execute()</text>
<text text-anchor="start" x="8" y="-123.5" font-family="Helvetica,sans-Serif" font-size="10.00">+ wrapper_execute()</text>
</a>
</g>
</g>
<!-- Node2&#45;&gt;Node1 -->
<g id="edge1" class="edge">
<title>Node2&#45;&gt;Node1</title>
<path fill="none" stroke="#404040" d="M75,-116.29C75,-104.55 75,-92.09 75,-80.57"/>
<polygon fill="none" stroke="#404040" points="75,-80.51 71,-74.51 75,-68.51 79,-74.51 75,-80.51"/>
<text text-anchor="middle" x="109.5" y="-90" font-family="Helvetica,sans-Serif" font-size="10.00"> +bayes_filter</text>
</g>
<!-- Node3 -->
<g id="node3" class="node">
<title>Node3</title>
<g id="a_node3"><a xlink:href="classTradingStrategy.html" target="_top" xlink:title=" ">
<polygon fill="white" stroke="black" points="7,-255.5 7,-433.5 143,-433.5 143,-255.5 7,-255.5"/>
<text text-anchor="middle" x="75" y="-421.5" font-family="Helvetica,sans-Serif" font-size="10.00">TradingStrategy</text>
<polyline fill="none" stroke="black" points="7,-414.5 143,-414.5 "/>
<text text-anchor="start" x="15" y="-402.5" font-family="Helvetica,sans-Serif" font-size="10.00"># is_backtesting</text>
<text text-anchor="start" x="15" y="-391.5" font-family="Helvetica,sans-Serif" font-size="10.00"># binanceOrderManager</text>
<text text-anchor="start" x="15" y="-380.5" font-family="Helvetica,sans-Serif" font-size="10.00"># symbol</text>
<text text-anchor="start" x="15" y="-369.5" font-family="Helvetica,sans-Serif" font-size="10.00"># balance</text>
<text text-anchor="start" x="15" y="-358.5" font-family="Helvetica,sans-Serif" font-size="10.00"># position_open</text>
<text text-anchor="start" x="15" y="-347.5" font-family="Helvetica,sans-Serif" font-size="10.00"># entry_price</text>
<text text-anchor="start" x="15" y="-336.5" font-family="Helvetica,sans-Serif" font-size="10.00"># asset_quantity</text>
<polyline fill="none" stroke="black" points="7,-329.5 143,-329.5 "/>
<text text-anchor="start" x="15" y="-317.5" font-family="Helvetica,sans-Serif" font-size="10.00">+ TradingStrategy()</text>
<text text-anchor="start" x="15" y="-306.5" font-family="Helvetica,sans-Serif" font-size="10.00">+ ~TradingStrategy()</text>
<text text-anchor="start" x="15" y="-295.5" font-family="Helvetica,sans-Serif" font-size="10.00">+ extract_prices()</text>
<text text-anchor="start" x="15" y="-284.5" font-family="Helvetica,sans-Serif" font-size="10.00"># should_buy()</text>
<text text-anchor="start" x="15" y="-273.5" font-family="Helvetica,sans-Serif" font-size="10.00"># should_sell()</text>
<text text-anchor="start" x="15" y="-262.5" font-family="Helvetica,sans-Serif" font-size="10.00"># execute()</text>
</a>
</g>
</g>
<!-- Node3&#45;&gt;Node2 -->
<g id="edge2" class="edge">
<title>Node3&#45;&gt;Node2</title>
<path fill="none" stroke="midnightblue" d="M75,-245.46C75,-235.87 75,-226.45 75,-217.66"/>
<polygon fill="none" stroke="midnightblue" points="71.5,-245.49 75,-255.49 78.5,-245.49 71.5,-245.49"/>
</g>
<!-- Node4 -->
<g id="node4" class="node">
<title>Node4</title>
<g id="a_node4"><a xlink:href="structTradingParams.html" target="_top" xlink:title=" ">
<polygon fill="white" stroke="black" points="31,-481.5 31,-571.5 119,-571.5 119,-481.5 31,-481.5"/>
<text text-anchor="middle" x="75" y="-559.5" font-family="Helvetica,sans-Serif" font-size="10.00">TradingParams</text>
<polyline fill="none" stroke="black" points="31,-552.5 119,-552.5 "/>
<text text-anchor="start" x="39" y="-540.5" font-family="Helvetica,sans-Serif" font-size="10.00">+ sma_short</text>
<text text-anchor="start" x="39" y="-529.5" font-family="Helvetica,sans-Serif" font-size="10.00">+ sma_long</text>
<text text-anchor="start" x="39" y="-518.5" font-family="Helvetica,sans-Serif" font-size="10.00">+ rsi_value</text>
<text text-anchor="start" x="39" y="-507.5" font-family="Helvetica,sans-Serif" font-size="10.00">+ rsi_prev</text>
<polyline fill="none" stroke="black" points="31,-500.5 119,-500.5 "/>
<text text-anchor="middle" x="75" y="-488.5" font-family="Helvetica,sans-Serif" font-size="10.00"> </text>
</a>
</g>
</g>
<!-- Node4&#45;&gt;Node3 -->
<g id="edge3" class="edge">
<title>Node4&#45;&gt;Node3</title>
<path fill="none" stroke="#404040" d="M75,-481.47C75,-470.5 75,-458.3 75,-445.82"/>
<polygon fill="none" stroke="#404040" points="75,-445.81 71,-439.81 75,-433.81 79,-439.81 75,-445.81"/>
<text text-anchor="middle" x="119" y="-455" font-family="Helvetica,sans-Serif" font-size="10.00"> #trading_params</text>
</g>
</g>
</svg>
