<?xml version="1.0" encoding="UTF-8" standalone="no"?>
<!DOCTYPE svg PUBLIC "-//W3C//DTD SVG 1.1//EN"
 "http://www.w3.org/Graphics/SVG/1.1/DTD/svg11.dtd">
<!-- Generated by graphviz version 2.43.0 (0)
 -->
<!-- Title: BayesianAdaptiveParameters Pages: 1 -->
<svg width="169pt" height="259pt"
 viewBox="0.00 0.00 169.00 259.00" xmlns="http://www.w3.org/2000/svg" xmlns:xlink="http://www.w3.org/1999/xlink">
<g id="graph0" class="graph" transform="scale(1 1) rotate(0) translate(4 255)">
<title>BayesianAdaptiveParameters</title>
<polygon fill="white" stroke="transparent" points="-4,4 -4,-255 165,-255 165,4 -4,4"/>
<!-- Node1 -->
<g id="node1" class="node">
<title>Node1</title>
<g id="a_node1"><a xlink:title=" ">
<polygon fill="#bfbfbf" stroke="black" points="0,-0.5 0,-145.5 161,-145.5 161,-0.5 0,-0.5"/>
<text text-anchor="middle" x="80.5" y="-133.5" font-family="Helvetica,sans-Serif" font-size="10.00">BayesianAdaptiveParameters</text>
<polyline fill="none" stroke="black" points="0,-126.5 161,-126.5 "/>
<text text-anchor="start" x="8" y="-114.5" font-family="Helvetica,sans-Serif" font-size="10.00">+ base_buyThreshold</text>
<text text-anchor="start" x="8" y="-103.5" font-family="Helvetica,sans-Serif" font-size="10.00">+ base_sellThreshold</text>
<text text-anchor="start" x="8" y="-92.5" font-family="Helvetica,sans-Serif" font-size="10.00">+ base_rsiThreshold</text>
<text text-anchor="start" x="8" y="-81.5" font-family="Helvetica,sans-Serif" font-size="10.00">+ delta</text>
<text text-anchor="start" x="8" y="-70.5" font-family="Helvetica,sans-Serif" font-size="10.00">+ delta_rsi</text>
<text text-anchor="start" x="8" y="-59.5" font-family="Helvetica,sans-Serif" font-size="10.00">+ buyThreshold</text>
<text text-anchor="start" x="8" y="-48.5" font-family="Helvetica,sans-Serif" font-size="10.00">+ sellThreshold</text>
<text text-anchor="start" x="8" y="-37.5" font-family="Helvetica,sans-Serif" font-size="10.00">+ rsiThreshold</text>
<polyline fill="none" stroke="black" points="0,-30.5 161,-30.5 "/>
<text text-anchor="start" x="8" y="-18.5" font-family="Helvetica,sans-Serif" font-size="10.00">+ updateParameters()</text>
<text text-anchor="start" x="8" y="-7.5" font-family="Helvetica,sans-Serif" font-size="10.00">+ getParameters()</text>
</a>
</g>
</g>
<!-- Node2 -->
<g id="node2" class="node">
<title>Node2</title>
<g id="a_node2"><a xlink:href="classAdaptiveParameters.html" target="_top" xlink:title=" ">
<polygon fill="white" stroke="black" points="9,-182.5 9,-250.5 152,-250.5 152,-182.5 9,-182.5"/>
<text text-anchor="middle" x="80.5" y="-238.5" font-family="Helvetica,sans-Serif" font-size="10.00">AdaptiveParameters</text>
<polyline fill="none" stroke="black" points="9,-231.5 152,-231.5 "/>
<text text-anchor="start" x="17" y="-219.5" font-family="Helvetica,sans-Serif" font-size="10.00">+ dynamic</text>
<polyline fill="none" stroke="black" points="9,-212.5 152,-212.5 "/>
<text text-anchor="start" x="17" y="-200.5" font-family="Helvetica,sans-Serif" font-size="10.00">+ ~AdaptiveParameters()</text>
<text text-anchor="start" x="17" y="-189.5" font-family="Helvetica,sans-Serif" font-size="10.00">+ updateParameters()</text>
</a>
</g>
</g>
<!-- Node2&#45;&gt;Node1 -->
<g id="edge1" class="edge">
<title>Node2&#45;&gt;Node1</title>
<path fill="none" stroke="midnightblue" d="M80.5,-172.09C80.5,-163.73 80.5,-154.76 80.5,-145.77"/>
<polygon fill="none" stroke="midnightblue" points="77,-172.32 80.5,-182.32 84,-172.32 77,-172.32"/>
</g>
</g>
</svg>
