<?xml version="1.0" encoding="UTF-8" standalone="no"?>
<!DOCTYPE svg PUBLIC "-//W3C//DTD SVG 1.1//EN"
 "http://www.w3.org/Graphics/SVG/1.1/DTD/svg11.dtd">
<!-- Generated by graphviz version 2.43.0 (0)
 -->
<!-- Title: TradingStrategy Pages: 1 -->
<svg width="164pt" height="325pt"
 viewBox="0.00 0.00 164.00 325.00" xmlns="http://www.w3.org/2000/svg" xmlns:xlink="http://www.w3.org/1999/xlink">
<g id="graph0" class="graph" transform="scale(1 1) rotate(0) translate(4 321)">
<title>TradingStrategy</title>
<polygon fill="white" stroke="transparent" points="-4,4 -4,-321 160,-321 160,4 -4,4"/>
<!-- Node1 -->
<g id="node1" class="node">
<title>Node1</title>
<g id="a_node1"><a xlink:title=" ">
<polygon fill="#bfbfbf" stroke="black" points="0,-0.5 0,-178.5 136,-178.5 136,-0.5 0,-0.5"/>
<text text-anchor="middle" x="68" y="-166.5" font-family="Helvetica,sans-Serif" font-size="10.00">TradingStrategy</text>
<polyline fill="none" stroke="black" points="0,-159.5 136,-159.5 "/>
<text text-anchor="start" x="8" y="-147.5" font-family="Helvetica,sans-Serif" font-size="10.00"># is_backtesting</text>
<text text-anchor="start" x="8" y="-136.5" font-family="Helvetica,sans-Serif" font-size="10.00"># binanceOrderManager</text>
<text text-anchor="start" x="8" y="-125.5" font-family="Helvetica,sans-Serif" font-size="10.00"># symbol</text>
<text text-anchor="start" x="8" y="-114.5" font-family="Helvetica,sans-Serif" font-size="10.00"># balance</text>
<text text-anchor="start" x="8" y="-103.5" font-family="Helvetica,sans-Serif" font-size="10.00"># position_open</text>
<text text-anchor="start" x="8" y="-92.5" font-family="Helvetica,sans-Serif" font-size="10.00"># entry_price</text>
<text text-anchor="start" x="8" y="-81.5" font-family="Helvetica,sans-Serif" font-size="10.00"># asset_quantity</text>
<polyline fill="none" stroke="black" points="0,-74.5 136,-74.5 "/>
<text text-anchor="start" x="8" y="-62.5" font-family="Helvetica,sans-Serif" font-size="10.00">+ TradingStrategy()</text>
<text text-anchor="start" x="8" y="-51.5" font-family="Helvetica,sans-Serif" font-size="10.00">+ ~TradingStrategy()</text>
<text text-anchor="start" x="8" y="-40.5" font-family="Helvetica,sans-Serif" font-size="10.00">+ extract_prices()</text>
<text text-anchor="start" x="8" y="-29.5" font-family="Helvetica,sans-Serif" font-size="10.00"># should_buy()</text>
<text text-anchor="start" x="8" y="-18.5" font-family="Helvetica,sans-Serif" font-size="10.00"># should_sell()</text>
<text text-anchor="start" x="8" y="-7.5" font-family="Helvetica,sans-Serif" font-size="10.00"># execute()</text>
</a>
</g>
</g>
<!-- Node2 -->
<g id="node2" class="node">
<title>Node2</title>
<g id="a_node2"><a xlink:href="structTradingParams.html" target="_top" xlink:title=" ">
<polygon fill="white" stroke="black" points="24,-226.5 24,-316.5 112,-316.5 112,-226.5 24,-226.5"/>
<text text-anchor="middle" x="68" y="-304.5" font-family="Helvetica,sans-Serif" font-size="10.00">TradingParams</text>
<polyline fill="none" stroke="black" points="24,-297.5 112,-297.5 "/>
<text text-anchor="start" x="32" y="-285.5" font-family="Helvetica,sans-Serif" font-size="10.00">+ sma_short</text>
<text text-anchor="start" x="32" y="-274.5" font-family="Helvetica,sans-Serif" font-size="10.00">+ sma_long</text>
<text text-anchor="start" x="32" y="-263.5" font-family="Helvetica,sans-Serif" font-size="10.00">+ rsi_value</text>
<text text-anchor="start" x="32" y="-252.5" font-family="Helvetica,sans-Serif" font-size="10.00">+ rsi_prev</text>
<polyline fill="none" stroke="black" points="24,-245.5 112,-245.5 "/>
<text text-anchor="middle" x="68" y="-233.5" font-family="Helvetica,sans-Serif" font-size="10.00"> </text>
</a>
</g>
</g>
<!-- Node2&#45;&gt;Node1 -->
<g id="edge1" class="edge">
<title>Node2&#45;&gt;Node1</title>
<path fill="none" stroke="#404040" d="M68,-226.47C68,-215.5 68,-203.3 68,-190.82"/>
<polygon fill="none" stroke="#404040" points="68,-190.81 64,-184.81 68,-178.81 72,-184.81 68,-190.81"/>
<text text-anchor="middle" x="112" y="-200" font-family="Helvetica,sans-Serif" font-size="10.00"> #trading_params</text>
</g>
</g>
</svg>
