<?xml version="1.0" encoding="UTF-8" standalone="no"?>
<!DOCTYPE svg PUBLIC "-//W3C//DTD SVG 1.1//EN"
 "http://www.w3.org/Graphics/SVG/1.1/DTD/svg11.dtd">
<!-- Generated by graphviz version 2.43.0 (0)
 -->
<!-- Title: MeanReverseStrategy Pages: 1 -->
<svg width="168pt" height="464pt"
 viewBox="0.00 0.00 167.50 464.00" xmlns="http://www.w3.org/2000/svg" xmlns:xlink="http://www.w3.org/1999/xlink">
<g id="graph0" class="graph" transform="scale(1 1) rotate(0) translate(4 460)">
<title>MeanReverseStrategy</title>
<polygon fill="white" stroke="transparent" points="-4,4 -4,-460 163.5,-460 163.5,4 -4,4"/>
<!-- Node1 -->
<g id="node1" class="node">
<title>Node1</title>
<g id="a_node1"><a xlink:title=" ">
<polygon fill="#bfbfbf" stroke="black" points="0,-0.5 0,-101.5 143,-101.5 143,-0.5 0,-0.5"/>
<text text-anchor="middle" x="71.5" y="-89.5" font-family="Helvetica,sans-Serif" font-size="10.00">MeanReverseStrategy</text>
<polyline fill="none" stroke="black" points="0,-82.5 143,-82.5 "/>
<text text-anchor="middle" x="71.5" y="-70.5" font-family="Helvetica,sans-Serif" font-size="10.00"> </text>
<polyline fill="none" stroke="black" points="0,-63.5 143,-63.5 "/>
<text text-anchor="start" x="8" y="-51.5" font-family="Helvetica,sans-Serif" font-size="10.00">+ MeanReverseStrategy()</text>
<text text-anchor="start" x="8" y="-40.5" font-family="Helvetica,sans-Serif" font-size="10.00">+ MeanReverseStrategy()</text>
<text text-anchor="start" x="8" y="-29.5" font-family="Helvetica,sans-Serif" font-size="10.00">+ set_parameters()</text>
<text text-anchor="start" x="8" y="-18.5" font-family="Helvetica,sans-Serif" font-size="10.00">+ execute()</text>
<text text-anchor="start" x="8" y="-7.5" font-family="Helvetica,sans-Serif" font-size="10.00">+ wrapper_execute()</text>
</a>
</g>
</g>
<!-- Node2 -->
<g id="node2" class="node">
<title>Node2</title>
<g id="a_node2"><a xlink:href="classTradingStrategy.html" target="_top" xlink:title=" ">
<polygon fill="white" stroke="black" points="3.5,-139.5 3.5,-317.5 139.5,-317.5 139.5,-139.5 3.5,-139.5"/>
<text text-anchor="middle" x="71.5" y="-305.5" font-family="Helvetica,sans-Serif" font-size="10.00">TradingStrategy</text>
<polyline fill="none" stroke="black" points="3.5,-298.5 139.5,-298.5 "/>
<text text-anchor="start" x="11.5" y="-286.5" font-family="Helvetica,sans-Serif" font-size="10.00"># is_backtesting</text>
<text text-anchor="start" x="11.5" y="-275.5" font-family="Helvetica,sans-Serif" font-size="10.00"># binanceOrderManager</text>
<text text-anchor="start" x="11.5" y="-264.5" font-family="Helvetica,sans-Serif" font-size="10.00"># symbol</text>
<text text-anchor="start" x="11.5" y="-253.5" font-family="Helvetica,sans-Serif" font-size="10.00"># balance</text>
<text text-anchor="start" x="11.5" y="-242.5" font-family="Helvetica,sans-Serif" font-size="10.00"># position_open</text>
<text text-anchor="start" x="11.5" y="-231.5" font-family="Helvetica,sans-Serif" font-size="10.00"># entry_price</text>
<text text-anchor="start" x="11.5" y="-220.5" font-family="Helvetica,sans-Serif" font-size="10.00"># asset_quantity</text>
<polyline fill="none" stroke="black" points="3.5,-213.5 139.5,-213.5 "/>
<text text-anchor="start" x="11.5" y="-201.5" font-family="Helvetica,sans-Serif" font-size="10.00">+ TradingStrategy()</text>
<text text-anchor="start" x="11.5" y="-190.5" font-family="Helvetica,sans-Serif" font-size="10.00">+ ~TradingStrategy()</text>
<text text-anchor="start" x="11.5" y="-179.5" font-family="Helvetica,sans-Serif" font-size="10.00">+ extract_prices()</text>
<text text-anchor="start" x="11.5" y="-168.5" font-family="Helvetica,sans-Serif" font-size="10.00"># should_buy()</text>
<text text-anchor="start" x="11.5" y="-157.5" font-family="Helvetica,sans-Serif" font-size="10.00"># should_sell()</text>
<text text-anchor="start" x="11.5" y="-146.5" font-family="Helvetica,sans-Serif" font-size="10.00"># execute()</text>
</a>
</g>
</g>
<!-- Node2&#45;&gt;Node1 -->
<g id="edge1" class="edge">
<title>Node2&#45;&gt;Node1</title>
<path fill="none" stroke="midnightblue" d="M71.5,-129.46C71.5,-119.87 71.5,-110.45 71.5,-101.66"/>
<polygon fill="none" stroke="midnightblue" points="68,-129.49 71.5,-139.49 75,-129.49 68,-129.49"/>
</g>
<!-- Node3 -->
<g id="node3" class="node">
<title>Node3</title>
<g id="a_node3"><a xlink:href="structTradingParams.html" target="_top" xlink:title=" ">
<polygon fill="white" stroke="black" points="27.5,-365.5 27.5,-455.5 115.5,-455.5 115.5,-365.5 27.5,-365.5"/>
<text text-anchor="middle" x="71.5" y="-443.5" font-family="Helvetica,sans-Serif" font-size="10.00">TradingParams</text>
<polyline fill="none" stroke="black" points="27.5,-436.5 115.5,-436.5 "/>
<text text-anchor="start" x="35.5" y="-424.5" font-family="Helvetica,sans-Serif" font-size="10.00">+ sma_short</text>
<text text-anchor="start" x="35.5" y="-413.5" font-family="Helvetica,sans-Serif" font-size="10.00">+ sma_long</text>
<text text-anchor="start" x="35.5" y="-402.5" font-family="Helvetica,sans-Serif" font-size="10.00">+ rsi_value</text>
<text text-anchor="start" x="35.5" y="-391.5" font-family="Helvetica,sans-Serif" font-size="10.00">+ rsi_prev</text>
<polyline fill="none" stroke="black" points="27.5,-384.5 115.5,-384.5 "/>
<text text-anchor="middle" x="71.5" y="-372.5" font-family="Helvetica,sans-Serif" font-size="10.00"> </text>
</a>
</g>
</g>
<!-- Node3&#45;&gt;Node2 -->
<g id="edge2" class="edge">
<title>Node3&#45;&gt;Node2</title>
<path fill="none" stroke="#404040" d="M71.5,-365.47C71.5,-354.5 71.5,-342.3 71.5,-329.82"/>
<polygon fill="none" stroke="#404040" points="71.5,-329.81 67.5,-323.81 71.5,-317.81 75.5,-323.81 71.5,-329.81"/>
<text text-anchor="middle" x="115.5" y="-339" font-family="Helvetica,sans-Serif" font-size="10.00"> #trading_params</text>
</g>
</g>
</svg>
