<?xml version="1.0" encoding="UTF-8" standalone="no"?>
<!DOCTYPE svg PUBLIC "-//W3C//DTD SVG 1.1//EN"
 "http://www.w3.org/Graphics/SVG/1.1/DTD/svg11.dtd">
<!-- Generated by graphviz version 2.43.0 (0)
 -->
<!-- Title: LiveBinanceScalpingCurrency Pages: 1 -->
<svg width="187pt" height="380pt"
 viewBox="0.00 0.00 187.00 380.00" xmlns="http://www.w3.org/2000/svg" xmlns:xlink="http://www.w3.org/1999/xlink">
<g id="graph0" class="graph" transform="scale(1 1) rotate(0) translate(4 376)">
<title>LiveBinanceScalpingCurrency</title>
<polygon fill="white" stroke="transparent" points="-4,4 -4,-376 183,-376 183,4 -4,4"/>
<!-- Node1 -->
<g id="node1" class="node">
<title>Node1</title>
<g id="a_node1"><a xlink:title=" ">
<polygon fill="#bfbfbf" stroke="black" points="0,-0.5 0,-90.5 179,-90.5 179,-0.5 0,-0.5"/>
<text text-anchor="middle" x="89.5" y="-78.5" font-family="Helvetica,sans-Serif" font-size="10.00">LiveBinanceScalpingCurrency</text>
<polyline fill="none" stroke="black" points="0,-71.5 179,-71.5 "/>
<text text-anchor="middle" x="89.5" y="-59.5" font-family="Helvetica,sans-Serif" font-size="10.00"> </text>
<polyline fill="none" stroke="black" points="0,-52.5 179,-52.5 "/>
<text text-anchor="start" x="8" y="-40.5" font-family="Helvetica,sans-Serif" font-size="10.00">+ get_prices()</text>
<text text-anchor="start" x="8" y="-29.5" font-family="Helvetica,sans-Serif" font-size="10.00">+ LiveBinanceScalpingCurrency()</text>
<text text-anchor="start" x="8" y="-18.5" font-family="Helvetica,sans-Serif" font-size="10.00">+ fetch_raw_data()</text>
<text text-anchor="start" x="8" y="-7.5" font-family="Helvetica,sans-Serif" font-size="10.00">+ fetch_raw_data()</text>
</a>
</g>
</g>
<!-- Node2 -->
<g id="node2" class="node">
<title>Node2</title>
<g id="a_node2"><a xlink:href="classBinanceScalping.html" target="_top" xlink:title=" ">
<polygon fill="white" stroke="black" points="27.5,-127.5 27.5,-371.5 151.5,-371.5 151.5,-127.5 27.5,-127.5"/>
<text text-anchor="middle" x="89.5" y="-359.5" font-family="Helvetica,sans-Serif" font-size="10.00">BinanceScalping</text>
<polyline fill="none" stroke="black" points="27.5,-352.5 151.5,-352.5 "/>
<text text-anchor="start" x="35.5" y="-340.5" font-family="Helvetica,sans-Serif" font-size="10.00"># host</text>
<text text-anchor="start" x="35.5" y="-329.5" font-family="Helvetica,sans-Serif" font-size="10.00"># port</text>
<text text-anchor="start" x="35.5" y="-318.5" font-family="Helvetica,sans-Serif" font-size="10.00"># target</text>
<text text-anchor="start" x="35.5" y="-307.5" font-family="Helvetica,sans-Serif" font-size="10.00"># json_raw_data</text>
<text text-anchor="start" x="35.5" y="-296.5" font-family="Helvetica,sans-Serif" font-size="10.00"># m_version</text>
<text text-anchor="start" x="35.5" y="-285.5" font-family="Helvetica,sans-Serif" font-size="10.00"># ioc</text>
<text text-anchor="start" x="35.5" y="-274.5" font-family="Helvetica,sans-Serif" font-size="10.00"># ctx</text>
<text text-anchor="start" x="35.5" y="-263.5" font-family="Helvetica,sans-Serif" font-size="10.00"># stream</text>
<text text-anchor="start" x="35.5" y="-252.5" font-family="Helvetica,sans-Serif" font-size="10.00"># is_connected</text>
<polyline fill="none" stroke="black" points="27.5,-245.5 151.5,-245.5 "/>
<text text-anchor="start" x="35.5" y="-233.5" font-family="Helvetica,sans-Serif" font-size="10.00">+ BinanceScalping()</text>
<text text-anchor="start" x="35.5" y="-222.5" font-family="Helvetica,sans-Serif" font-size="10.00">+ BinanceScalping()</text>
<text text-anchor="start" x="35.5" y="-211.5" font-family="Helvetica,sans-Serif" font-size="10.00">+ BinanceScalping()</text>
<text text-anchor="start" x="35.5" y="-200.5" font-family="Helvetica,sans-Serif" font-size="10.00">+ operator=()</text>
<text text-anchor="start" x="35.5" y="-189.5" font-family="Helvetica,sans-Serif" font-size="10.00">+ operator=()</text>
<text text-anchor="start" x="35.5" y="-178.5" font-family="Helvetica,sans-Serif" font-size="10.00">+ BinanceScalping()</text>
<text text-anchor="start" x="35.5" y="-167.5" font-family="Helvetica,sans-Serif" font-size="10.00">+ fetch_raw_data()</text>
<text text-anchor="start" x="35.5" y="-156.5" font-family="Helvetica,sans-Serif" font-size="10.00">+ fetch_raw_data()</text>
<text text-anchor="start" x="35.5" y="-145.5" font-family="Helvetica,sans-Serif" font-size="10.00">+ ~BinanceScalping()</text>
<text text-anchor="start" x="35.5" y="-134.5" font-family="Helvetica,sans-Serif" font-size="10.00">+ connect()</text>
</a>
</g>
</g>
<!-- Node2&#45;&gt;Node1 -->
<g id="edge1" class="edge">
<title>Node2&#45;&gt;Node1</title>
<path fill="none" stroke="midnightblue" d="M89.5,-117.47C89.5,-107.97 89.5,-98.85 89.5,-90.51"/>
<polygon fill="none" stroke="midnightblue" points="86,-117.5 89.5,-127.5 93,-117.5 86,-117.5"/>
</g>
</g>
</svg>
