<?xml version="1.0" encoding="UTF-8" standalone="no"?>
<!DOCTYPE svg PUBLIC "-//W3C//DTD SVG 1.1//EN"
 "http://www.w3.org/Graphics/SVG/1.1/DTD/svg11.dtd">
<!-- Generated by graphviz version 2.43.0 (0)
 -->
<!-- Title: Graphical Class Hierarchy Pages: 1 -->
<svg width="268pt" height="142pt"
 viewBox="0.00 0.00 268.00 142.00" xmlns="http://www.w3.org/2000/svg" xmlns:xlink="http://www.w3.org/1999/xlink">
<g id="graph0" class="graph" transform="scale(1 1) rotate(0) translate(4 138)">
<title>Graphical Class Hierarchy</title>
<polygon fill="white" stroke="transparent" points="-4,4 -4,-138 264,-138 264,4 -4,4"/>
<!-- Node0 -->
<g id="node1" class="node">
<title>Node0</title>
<g id="a_node1"><a xlink:href="classTradingStrategy.html" target="_top" xlink:title=" ">
<polygon fill="white" stroke="black" points="0,-57.5 0,-76.5 93,-76.5 93,-57.5 0,-57.5"/>
<text text-anchor="middle" x="46.5" y="-64.5" font-family="Helvetica,sans-Serif" font-size="10.00">TradingStrategy</text>
</a>
</g>
</g>
<!-- Node1 -->
<g id="node2" class="node">
<title>Node1</title>
<g id="a_node2"><a xlink:href="classArimaGarchAdaptive.html" target="_top" xlink:title=" ">
<polygon fill="white" stroke="black" points="135.5,-114.5 135.5,-133.5 253.5,-133.5 253.5,-114.5 135.5,-114.5"/>
<text text-anchor="middle" x="194.5" y="-121.5" font-family="Helvetica,sans-Serif" font-size="10.00">ArimaGarchAdaptive</text>
</a>
</g>
</g>
<!-- Node0&#45;&gt;Node1 -->
<g id="edge1" class="edge">
<title>Node0&#45;&gt;Node1</title>
<path fill="none" stroke="midnightblue" d="M75.02,-81.09C90.61,-88.75 110.62,-98.05 129,-105 138.17,-108.47 148.27,-111.7 157.7,-114.49"/>
<polygon fill="midnightblue" stroke="midnightblue" points="76.44,-77.89 65.93,-76.56 73.32,-84.16 76.44,-77.89"/>
</g>
<!-- Node2 -->
<g id="node3" class="node">
<title>Node2</title>
<g id="a_node3"><a xlink:href="classBayesianSignalFiltering.html" target="_top" xlink:title=" ">
<polygon fill="white" stroke="black" points="129,-76.5 129,-95.5 260,-95.5 260,-76.5 129,-76.5"/>
<text text-anchor="middle" x="194.5" y="-83.5" font-family="Helvetica,sans-Serif" font-size="10.00">BayesianSignalFiltering</text>
</a>
</g>
</g>
<!-- Node0&#45;&gt;Node2 -->
<g id="edge2" class="edge">
<title>Node0&#45;&gt;Node2</title>
<path fill="none" stroke="midnightblue" d="M103.31,-74.26C111.67,-75.35 120.35,-76.48 128.88,-77.59"/>
<polygon fill="midnightblue" stroke="midnightblue" points="103.66,-70.78 93.29,-72.96 102.76,-77.72 103.66,-70.78"/>
</g>
<!-- Node3 -->
<g id="node4" class="node">
<title>Node3</title>
<g id="a_node4"><a xlink:href="classMeanReverseStrategy.html" target="_top" xlink:title=" ">
<polygon fill="white" stroke="black" points="132,-38.5 132,-57.5 257,-57.5 257,-38.5 132,-38.5"/>
<text text-anchor="middle" x="194.5" y="-45.5" font-family="Helvetica,sans-Serif" font-size="10.00">MeanReverseStrategy</text>
</a>
</g>
</g>
<!-- Node0&#45;&gt;Node3 -->
<g id="edge3" class="edge">
<title>Node0&#45;&gt;Node3</title>
<path fill="none" stroke="midnightblue" d="M103.24,-59.75C112.59,-58.53 122.33,-57.26 131.81,-56.03"/>
<polygon fill="midnightblue" stroke="midnightblue" points="102.76,-56.28 93.29,-61.04 103.66,-63.22 102.76,-56.28"/>
</g>
<!-- Node4 -->
<g id="node5" class="node">
<title>Node4</title>
<g id="a_node5"><a xlink:href="classScalpingStr.html" target="_top" xlink:title=" ">
<polygon fill="white" stroke="black" points="159,-0.5 159,-19.5 230,-19.5 230,-0.5 159,-0.5"/>
<text text-anchor="middle" x="194.5" y="-7.5" font-family="Helvetica,sans-Serif" font-size="10.00">ScalpingStr</text>
</a>
</g>
</g>
<!-- Node0&#45;&gt;Node4 -->
<g id="edge4" class="edge">
<title>Node0&#45;&gt;Node4</title>
<path fill="none" stroke="midnightblue" d="M75.02,-52.91C90.61,-45.25 110.62,-35.95 129,-29 138.5,-25.41 148.99,-22.06 158.71,-19.21"/>
<polygon fill="midnightblue" stroke="midnightblue" points="73.32,-49.84 65.93,-57.44 76.44,-56.11 73.32,-49.84"/>
</g>
</g>
</svg>
