<?xml version="1.0" encoding="UTF-8" standalone="no"?>
<!DOCTYPE svg PUBLIC "-//W3C//DTD SVG 1.1//EN"
 "http://www.w3.org/Graphics/SVG/1.1/DTD/svg11.dtd">
<!-- Generated by graphviz version 2.43.0 (0)
 -->
<!-- Title: Graphical Class Hierarchy Pages: 1 -->
<svg width="329pt" height="154pt"
 viewBox="0.00 0.00 329.00 153.50" xmlns="http://www.w3.org/2000/svg" xmlns:xlink="http://www.w3.org/1999/xlink">
<g id="graph0" class="graph" transform="scale(1 1) rotate(0) translate(4 149.5)">
<title>Graphical Class Hierarchy</title>
<polygon fill="white" stroke="transparent" points="-4,4 -4,-149.5 325,-149.5 325,4 -4,4"/>
<!-- Node0 -->
<g id="node1" class="node">
<title>Node0</title>
<g id="a_node1"><a xlink:href="classAbstractOrderManager.html" target="_top" xlink:title=" ">
<polygon fill="white" stroke="black" points="0,-69 0,-88 127,-88 127,-69 0,-69"/>
<text text-anchor="middle" x="63.5" y="-76" font-family="Helvetica,sans-Serif" font-size="10.00">AbstractOrderManager</text>
</a>
</g>
</g>
<!-- Node1 -->
<g id="node2" class="node">
<title>Node1</title>
<g id="a_node2"><a xlink:href="classBinanceOrderManager.html" target="_top" xlink:title=" ">
<polygon fill="white" stroke="black" points="179.5,-126 179.5,-145 304.5,-145 304.5,-126 179.5,-126"/>
<text text-anchor="middle" x="242" y="-133" font-family="Helvetica,sans-Serif" font-size="10.00">BinanceOrderManager</text>
</a>
</g>
</g>
<!-- Node0&#45;&gt;Node1 -->
<g id="edge1" class="edge">
<title>Node0&#45;&gt;Node1</title>
<path fill="none" stroke="midnightblue" d="M96.32,-91.98C115.43,-99.77 140.36,-109.41 163,-116.5 174.04,-119.96 186.12,-123.17 197.41,-125.93"/>
<polygon fill="midnightblue" stroke="midnightblue" points="97.48,-88.67 86.9,-88.1 94.81,-95.14 97.48,-88.67"/>
</g>
<!-- Node2 -->
<g id="node3" class="node">
<title>Node2</title>
<g id="a_node3"><a xlink:href="classKrakenOrderManager.html" target="_top" xlink:title=" ">
<polygon fill="white" stroke="black" points="182,-88 182,-107 302,-107 302,-88 182,-88"/>
<text text-anchor="middle" x="242" y="-95" font-family="Helvetica,sans-Serif" font-size="10.00">KrakenOrderManager</text>
</a>
</g>
</g>
<!-- Node0&#45;&gt;Node2 -->
<g id="edge2" class="edge">
<title>Node0&#45;&gt;Node2</title>
<path fill="none" stroke="midnightblue" d="M137.34,-86.34C152.12,-87.93 167.49,-89.59 181.73,-91.12"/>
<polygon fill="midnightblue" stroke="midnightblue" points="137.54,-82.84 127.22,-85.25 136.79,-89.8 137.54,-82.84"/>
</g>
<!-- Node3 -->
<g id="node4" class="node">
<title>Node3</title>
<g id="a_node4"><a xlink:href="classOKXOrderManager.html" target="_top" xlink:title=" ">
<polygon fill="white" stroke="black" points="188.5,-50 188.5,-69 295.5,-69 295.5,-50 188.5,-50"/>
<text text-anchor="middle" x="242" y="-57" font-family="Helvetica,sans-Serif" font-size="10.00">OKXOrderManager</text>
</a>
</g>
</g>
<!-- Node0&#45;&gt;Node3 -->
<g id="edge3" class="edge">
<title>Node0&#45;&gt;Node3</title>
<path fill="none" stroke="midnightblue" d="M137.21,-70.67C154.36,-68.83 172.32,-66.89 188.39,-65.16"/>
<polygon fill="midnightblue" stroke="midnightblue" points="136.79,-67.2 127.22,-71.75 137.54,-74.16 136.79,-67.2"/>
</g>
<!-- Node4 -->
<g id="node5" class="node">
<title>Node4</title>
<g id="a_node5"><a xlink:href="classOrderManagerTest_1_1TestOrderManager.html" target="_top" xlink:title=" ">
<polygon fill="white" stroke="black" points="163,-0.5 163,-30.5 321,-30.5 321,-0.5 163,-0.5"/>
<text text-anchor="start" x="171" y="-18.5" font-family="Helvetica,sans-Serif" font-size="10.00">OrderManagerTest::TestOrder</text>
<text text-anchor="middle" x="242" y="-7.5" font-family="Helvetica,sans-Serif" font-size="10.00">Manager</text>
</a>
</g>
</g>
<!-- Node0&#45;&gt;Node4 -->
<g id="edge4" class="edge">
<title>Node0&#45;&gt;Node4</title>
<path fill="none" stroke="midnightblue" d="M97.66,-65.16C116.68,-57.64 141.07,-48.24 163,-40.5 172.52,-37.14 182.76,-33.72 192.59,-30.53"/>
<polygon fill="midnightblue" stroke="midnightblue" points="96.24,-61.95 88.24,-68.9 98.83,-68.46 96.24,-61.95"/>
</g>
</g>
</svg>
