<?xml version="1.0" encoding="UTF-8" standalone="no"?>
<!DOCTYPE svg PUBLIC "-//W3C//DTD SVG 1.1//EN"
 "http://www.w3.org/Graphics/SVG/1.1/DTD/svg11.dtd">
<!-- Generated by graphviz version 2.43.0 (0)
 -->
<!-- Title: Graphical Class Hierarchy Pages: 1 -->
<svg width="296pt" height="218pt"
 viewBox="0.00 0.00 296.00 218.00" xmlns="http://www.w3.org/2000/svg" xmlns:xlink="http://www.w3.org/1999/xlink">
<g id="graph0" class="graph" transform="scale(1 1) rotate(0) translate(4 214)">
<title>Graphical Class Hierarchy</title>
<polygon fill="white" stroke="transparent" points="-4,4 -4,-214 292,-214 292,4 -4,4"/>
<!-- Node33 -->
<g id="node1" class="node">
<title>Node33</title>
<g id="a_node1"><a xlink:title=" ">
<polygon fill="white" stroke="#bfbfbf" points="0,-95.5 0,-114.5 76,-114.5 76,-95.5 0,-95.5"/>
<text text-anchor="middle" x="38" y="-102.5" font-family="Helvetica,sans-Serif" font-size="10.00">testing::Test</text>
</a>
</g>
</g>
<!-- Node0 -->
<g id="node2" class="node">
<title>Node0</title>
<g id="a_node2"><a xlink:href="classArimaGarchAdaptiveBacktesting.html" target="_top" xlink:title=" ">
<polygon fill="white" stroke="black" points="112,-190.5 112,-209.5 288,-209.5 288,-190.5 112,-190.5"/>
<text text-anchor="middle" x="200" y="-197.5" font-family="Helvetica,sans-Serif" font-size="10.00">ArimaGarchAdaptiveBacktesting</text>
</a>
</g>
</g>
<!-- Node33&#45;&gt;Node0 -->
<g id="edge1" class="edge">
<title>Node33&#45;&gt;Node0</title>
<path fill="none" stroke="midnightblue" d="M51.3,-122.98C64.3,-140.56 86.44,-166.69 112,-181 118.88,-184.85 126.47,-187.92 134.22,-190.37"/>
<polygon fill="midnightblue" stroke="midnightblue" points="54.03,-120.78 45.36,-114.68 48.33,-124.85 54.03,-120.78"/>
</g>
<!-- Node35 -->
<g id="node3" class="node">
<title>Node35</title>
<g id="a_node3"><a xlink:href="classBayesianBacktesting.html" target="_top" xlink:title=" ">
<polygon fill="white" stroke="black" points="140.5,-152.5 140.5,-171.5 259.5,-171.5 259.5,-152.5 140.5,-152.5"/>
<text text-anchor="middle" x="200" y="-159.5" font-family="Helvetica,sans-Serif" font-size="10.00">BayesianBacktesting</text>
</a>
</g>
</g>
<!-- Node33&#45;&gt;Node35 -->
<g id="edge2" class="edge">
<title>Node33&#45;&gt;Node35</title>
<path fill="none" stroke="midnightblue" d="M63.28,-119.71C77.14,-127.58 95.08,-136.87 112,-143 122.32,-146.74 133.61,-149.86 144.53,-152.43"/>
<polygon fill="midnightblue" stroke="midnightblue" points="64.8,-116.55 54.4,-114.56 61.29,-122.6 64.8,-116.55"/>
</g>
<!-- Node36 -->
<g id="node4" class="node">
<title>Node36</title>
<g id="a_node4"><a xlink:href="classBellmanFordTest.html" target="_top" xlink:title=" ">
<polygon fill="white" stroke="black" points="151,-114.5 151,-133.5 249,-133.5 249,-114.5 151,-114.5"/>
<text text-anchor="middle" x="200" y="-121.5" font-family="Helvetica,sans-Serif" font-size="10.00">BellmanFordTest</text>
</a>
</g>
</g>
<!-- Node33&#45;&gt;Node36 -->
<g id="edge3" class="edge">
<title>Node33&#45;&gt;Node36</title>
<path fill="none" stroke="midnightblue" d="M86.12,-110.6C106.51,-113.02 130.35,-115.85 150.86,-118.28"/>
<polygon fill="midnightblue" stroke="midnightblue" points="86.45,-107.11 76.11,-109.41 85.63,-114.06 86.45,-107.11"/>
</g>
<!-- Node37 -->
<g id="node5" class="node">
<title>Node37</title>
<g id="a_node5"><a xlink:href="classMeanReverseBacktesting.html" target="_top" xlink:title=" ">
<polygon fill="white" stroke="black" points="129.5,-76.5 129.5,-95.5 270.5,-95.5 270.5,-76.5 129.5,-76.5"/>
<text text-anchor="middle" x="200" y="-83.5" font-family="Helvetica,sans-Serif" font-size="10.00">MeanReverseBacktesting</text>
</a>
</g>
</g>
<!-- Node33&#45;&gt;Node37 -->
<g id="edge4" class="edge">
<title>Node33&#45;&gt;Node37</title>
<path fill="none" stroke="midnightblue" d="M86.15,-99.4C99.71,-97.79 114.79,-96 129.4,-94.26"/>
<polygon fill="midnightblue" stroke="midnightblue" points="85.63,-95.94 76.11,-100.59 86.45,-102.89 85.63,-95.94"/>
</g>
<!-- Node38 -->
<g id="node6" class="node">
<title>Node38</title>
<g id="a_node6"><a xlink:href="classOrderManagerTest.html" target="_top" xlink:title=" ">
<polygon fill="white" stroke="black" points="147,-38.5 147,-57.5 253,-57.5 253,-38.5 147,-38.5"/>
<text text-anchor="middle" x="200" y="-45.5" font-family="Helvetica,sans-Serif" font-size="10.00">OrderManagerTest</text>
</a>
</g>
</g>
<!-- Node33&#45;&gt;Node38 -->
<g id="edge5" class="edge">
<title>Node33&#45;&gt;Node38</title>
<path fill="none" stroke="midnightblue" d="M63.28,-90.29C77.14,-82.42 95.08,-73.13 112,-67 123.05,-63 135.2,-59.7 146.84,-57.04"/>
<polygon fill="midnightblue" stroke="midnightblue" points="61.29,-87.4 54.4,-95.44 64.8,-93.45 61.29,-87.4"/>
</g>
<!-- Node39 -->
<g id="node7" class="node">
<title>Node39</title>
<g id="a_node7"><a xlink:href="classScalpingBacktesting.html" target="_top" xlink:title=" ">
<polygon fill="white" stroke="black" points="142,-0.5 142,-19.5 258,-19.5 258,-0.5 142,-0.5"/>
<text text-anchor="middle" x="200" y="-7.5" font-family="Helvetica,sans-Serif" font-size="10.00">ScalpingBacktesting</text>
</a>
</g>
</g>
<!-- Node33&#45;&gt;Node39 -->
<g id="edge6" class="edge">
<title>Node33&#45;&gt;Node39</title>
<path fill="none" stroke="midnightblue" d="M51.3,-87.02C64.3,-69.44 86.44,-43.31 112,-29 121.17,-23.87 131.61,-20.12 142,-17.38"/>
<polygon fill="midnightblue" stroke="midnightblue" points="48.33,-85.15 45.36,-95.32 54.03,-89.22 48.33,-85.15"/>
</g>
</g>
</svg>
