<?xml version="1.0" encoding="UTF-8" standalone="no"?>
<!DOCTYPE svg PUBLIC "-//W3C//DTD SVG 1.1//EN"
 "http://www.w3.org/Graphics/SVG/1.1/DTD/svg11.dtd">
<!-- Generated by graphviz version 2.43.0 (0)
 -->
<!-- Title: Graphical Class Hierarchy Pages: 1 -->
<svg width="302pt" height="180pt"
 viewBox="0.00 0.00 302.00 180.00" xmlns="http://www.w3.org/2000/svg" xmlns:xlink="http://www.w3.org/1999/xlink">
<g id="graph0" class="graph" transform="scale(1 1) rotate(0) translate(4 176)">
<title>Graphical Class Hierarchy</title>
<polygon fill="white" stroke="transparent" points="-4,4 -4,-176 298,-176 298,4 -4,4"/>
<!-- Node0 -->
<g id="node1" class="node">
<title>Node0</title>
<g id="a_node1"><a xlink:href="classBinanceScalping.html" target="_top" xlink:title=" ">
<polygon fill="white" stroke="black" points="0,-76.5 0,-95.5 97,-95.5 97,-76.5 0,-76.5"/>
<text text-anchor="middle" x="48.5" y="-83.5" font-family="Helvetica,sans-Serif" font-size="10.00">BinanceScalping</text>
</a>
</g>
</g>
<!-- Node1 -->
<g id="node2" class="node">
<title>Node1</title>
<g id="a_node2"><a xlink:href="classBinanceAPI.html" target="_top" xlink:title=" ">
<polygon fill="white" stroke="black" points="178,-152.5 178,-171.5 249,-171.5 249,-152.5 178,-152.5"/>
<text text-anchor="middle" x="213.5" y="-159.5" font-family="Helvetica,sans-Serif" font-size="10.00">BinanceAPI</text>
</a>
</g>
</g>
<!-- Node0&#45;&gt;Node1 -->
<g id="edge1" class="edge">
<title>Node0&#45;&gt;Node1</title>
<path fill="none" stroke="midnightblue" d="M68.7,-102.13C84.89,-114.96 109.17,-132.45 133,-143 147.14,-149.26 163.66,-153.64 177.96,-156.59"/>
<polygon fill="midnightblue" stroke="midnightblue" points="70.56,-99.14 60.59,-95.56 66.15,-104.57 70.56,-99.14"/>
</g>
<!-- Node2 -->
<g id="node3" class="node">
<title>Node2</title>
<g id="a_node3"><a xlink:href="classKrakenAPI.html" target="_top" xlink:title=" ">
<polygon fill="white" stroke="black" points="180.5,-114.5 180.5,-133.5 246.5,-133.5 246.5,-114.5 180.5,-114.5"/>
<text text-anchor="middle" x="213.5" y="-121.5" font-family="Helvetica,sans-Serif" font-size="10.00">KrakenAPI</text>
</a>
</g>
</g>
<!-- Node0&#45;&gt;Node2 -->
<g id="edge2" class="edge">
<title>Node0&#45;&gt;Node2</title>
<path fill="none" stroke="midnightblue" d="M100.38,-97.86C126.52,-103.96 157.58,-111.2 180.38,-116.51"/>
<polygon fill="midnightblue" stroke="midnightblue" points="101.17,-94.45 90.63,-95.59 99.58,-101.27 101.17,-94.45"/>
</g>
<!-- Node3 -->
<g id="node4" class="node">
<title>Node3</title>
<g id="a_node4"><a xlink:href="classLiveBinanceScalping.html" target="_top" xlink:title=" ">
<polygon fill="white" stroke="black" points="155,-76.5 155,-95.5 272,-95.5 272,-76.5 155,-76.5"/>
<text text-anchor="middle" x="213.5" y="-83.5" font-family="Helvetica,sans-Serif" font-size="10.00">LiveBinanceScalping</text>
</a>
</g>
</g>
<!-- Node0&#45;&gt;Node3 -->
<g id="edge3" class="edge">
<title>Node0&#45;&gt;Node3</title>
<path fill="none" stroke="midnightblue" d="M107.49,-86C122.84,-86 139.41,-86 154.75,-86"/>
<polygon fill="midnightblue" stroke="midnightblue" points="107.08,-82.5 97.08,-86 107.08,-89.5 107.08,-82.5"/>
</g>
<!-- Node4 -->
<g id="node5" class="node">
<title>Node4</title>
<g id="a_node5"><a xlink:href="classLiveBinanceScalpingCurrency.html" target="_top" xlink:title=" ">
<polygon fill="white" stroke="black" points="133,-38.5 133,-57.5 294,-57.5 294,-38.5 133,-38.5"/>
<text text-anchor="middle" x="213.5" y="-45.5" font-family="Helvetica,sans-Serif" font-size="10.00">LiveBinanceScalpingCurrency</text>
</a>
</g>
</g>
<!-- Node0&#45;&gt;Node4 -->
<g id="edge4" class="edge">
<title>Node0&#45;&gt;Node4</title>
<path fill="none" stroke="midnightblue" d="M100.53,-74.1C123.44,-68.76 150.1,-62.55 171.66,-57.52"/>
<polygon fill="midnightblue" stroke="midnightblue" points="99.58,-70.73 90.63,-76.41 101.17,-77.55 99.58,-70.73"/>
</g>
<!-- Node5 -->
<g id="node6" class="node">
<title>Node5</title>
<g id="a_node6"><a xlink:href="classOKXAPI.html" target="_top" xlink:title=" ">
<polygon fill="white" stroke="black" points="187,-0.5 187,-19.5 240,-19.5 240,-0.5 187,-0.5"/>
<text text-anchor="middle" x="213.5" y="-7.5" font-family="Helvetica,sans-Serif" font-size="10.00">OKXAPI</text>
</a>
</g>
</g>
<!-- Node0&#45;&gt;Node5 -->
<g id="edge5" class="edge">
<title>Node0&#45;&gt;Node5</title>
<path fill="none" stroke="midnightblue" d="M68.7,-69.87C84.89,-57.04 109.17,-39.55 133,-29 150.13,-21.42 170.73,-16.6 186.67,-13.72"/>
<polygon fill="midnightblue" stroke="midnightblue" points="66.15,-67.43 60.59,-76.44 70.56,-72.86 66.15,-67.43"/>
</g>
</g>
</svg>
